<?xml version="1.0" encoding="utf-8"?>
<!-- Generator: Adobe Illustrator 21.0.2, SVG Export Plug-In . SVG Version: 6.00 Build 0)  -->
<svg version="1.1" id="Layer_1" xmlns="http://www.w3.org/2000/svg" xmlns:xlink="http://www.w3.org/1999/xlink" x="0px" y="0px"
	 width="50px" height="50px" viewBox="0 0 50 50" style="enable-background:new 0 0 50 50;" xml:space="preserve">
<style type="text/css">
	.st0{fill:#FFFFFF;}
	.st1{fill:#DDDDDD;}
	.st2{fill:#3777BC;}
</style>
<path class="st0" d="M47.5,16.5C44,7.4,35.3,1,25,1S6,7.4,2.5,16.5h0.1c-1,2.6-1.5,5.5-1.5,8.5s0.5,5.9,1.5,8.5
	C6,42.6,14.7,49,25,49s19-6.4,22.5-15.5c1-2.6,1.5-5.5,1.5-8.5S48.5,19.1,47.5,16.5z"/>
<path class="st1" d="M48,25c0,12.7-10.3,23-23,23S2,37.7,2,25S12.3,2,25,2S48,12.3,48,25 M50,25C50,11.2,38.8,0,25,0S0,11.2,0,25
	s11.2,25,25,25S50,38.8,50,25L50,25z"/>
<path class="st2" d="M25.7,13.7l2.4,7.5H36c0.7,0,1.1,1,0.5,1.4l-6.3,4.6l2.4,7.5c0.2,0.7-0.6,1.3-1.2,0.9L25,30.9l-6.3,4.6
	c-0.6,0.4-1.4-0.2-1.2-0.9l2.4-7.5l-6.3-4.6c-0.6-0.4-0.3-1.4,0.5-1.4h7.8l2.4-7.5C24.5,13,25.5,13,25.7,13.7"/>
</svg>
