<?xml version="1.0" encoding="utf-8"?>
<!-- Generator: Adobe Illustrator 21.0.2, SVG Export Plug-In . SVG Version: 6.00 Build 0)  -->
<svg version="1.1" id="Layer_1" xmlns="http://www.w3.org/2000/svg" xmlns:xlink="http://www.w3.org/1999/xlink" x="0px" y="0px"
	 width="50px" height="50px" viewBox="0 0 50 50" style="enable-background:new 0 0 50 50;" xml:space="preserve">
<style type="text/css">
	.st0{fill:#D81E05;}
	.st1{fill:#FFFFFF;}
	.st2{fill:#DDDDDD;}
</style>
<circle class="st0" cx="25" cy="25" r="24"/>
<path class="st1" d="M47.6,17H2.4C1.5,19.5,1,22.2,1,25s0.5,5.5,1.4,8h45.3c0.9-2.5,1.4-5.2,1.4-8S48.5,19.5,47.6,17z"/>
<path class="st2" d="M25,2c12.7,0,23,10.3,23,23S37.7,48,25,48S2,37.7,2,25S12.3,2,25,2 M25,0C11.2,0,0,11.2,0,25s11.2,25,25,25
	s25-11.2,25-25S38.8,0,25,0L25,0z"/>
</svg>
