<?xml version="1.0" encoding="utf-8"?>
<!-- Generator: Adobe Illustrator 21.0.2, SVG Export Plug-In . SVG Version: 6.00 Build 0)  -->
<svg version="1.1" id="Layer_1" xmlns="http://www.w3.org/2000/svg" xmlns:xlink="http://www.w3.org/1999/xlink" x="0px" y="0px"
	 width="50px" height="50px" viewBox="0 0 50 50" style="enable-background:new 0 0 50 50;" xml:space="preserve">
<style type="text/css">
	.st0{fill:#FFFFFF;}
	.st1{fill:#123985;}
	.st2{fill:#FF0000;}
	.st3{fill:#DDDDDD;}
</style>
<g>
	<path class="st0" d="M25.2,7.6h16.4c-1.6-1.5-3.4-2.8-5.3-3.8H25.2V7.6z"/>
	<path class="st0" d="M25.2,15.3h21.8c-0.6-1.3-1.3-2.6-2.1-3.8H25.2V15.3z"/>
	<path class="st0" d="M16.3,3.1l0.9,0.7l-0.4-1.1l0.6-0.5c-0.7,0.2-1.3,0.5-1.9,0.7l-0.3,1L16.3,3.1z"/>
	<path class="st0" d="M25.2,19.2V23h23.7c-0.1-1.3-0.3-2.6-0.6-3.8H25.2z"/>
	<path class="st0" d="M12.3,6.6l1-0.8l0.9,0.8l-0.4-1.2l1-0.7h-1.1L13.4,4c-0.1,0.1-0.2,0.1-0.3,0.2l-0.2,0.6h-0.7
		c-0.1,0-0.1,0.1-0.2,0.1l0.8,0.6L12.3,6.6z"/>
	<polygon class="st0" points="12.7,11.1 12.3,12.2 13.2,11.5 14.2,12.2 13.8,11.1 14.8,10.4 13.6,10.4 13.2,9.2 12.9,10.4 
		11.8,10.4 	"/>
	<path class="st0" d="M6.6,12.2l0.9-0.7l1,0.7l-0.4-1.1l0.9-0.7H7.8L7.5,9.2l-0.3,1.1H6c0,0,0,0,0,0l0.9,0.7L6.6,12.2z"/>
	<polygon class="st0" points="15.3,9.4 16.3,8.7 17.2,9.4 16.8,8.3 17.8,7.6 16.6,7.6 16.3,6.5 15.9,7.6 14.7,7.6 15.6,8.3 	"/>
	<polygon class="st0" points="22,12 21.6,13.1 20.5,13.1 21.4,13.8 21,15 22,14.3 22.9,15 22.5,13.8 23.5,13.1 22.4,13.1 	"/>
	<polygon class="st0" points="19.4,10.4 19,9.2 18.7,10.4 17.5,10.4 18.4,11.1 18,12.2 19,11.5 20,12.2 19.5,11.1 20.5,10.4 	"/>
	<polygon class="st0" points="9.5,15 10.5,14.3 11.5,15 11.1,13.8 12,13.1 10.9,13.1 10.5,12 10.2,13.1 9,13.1 9.9,13.8 	"/>
	<polygon class="st0" points="22,6.5 21.6,7.6 20.5,7.6 21.4,8.3 21,9.4 22,8.7 22.9,9.4 22.5,8.3 23.5,7.6 22.4,7.6 	"/>
	<path class="st0" d="M3.8,15l1-0.7l1,0.7l-0.4-1.1l0.9-0.7H5.2L4.8,12l-0.4,1.1H4.1c-0.1,0.1-0.2,0.3-0.2,0.4l0.3,0.2L3.8,15z"/>
	<polygon class="st0" points="9.5,9.4 10.5,8.7 11.5,9.4 11.1,8.3 12,7.6 10.9,7.6 10.5,6.5 10.2,7.6 9,7.6 9.9,8.3 	"/>
	<polygon class="st0" points="14.8,21.4 13.6,21.4 13.2,20.4 12.9,21.4 11.8,21.4 12.7,22.1 12.3,23.3 13.2,22.6 14.2,23.3 
		13.8,22.1 	"/>
	<polygon class="st0" points="20.5,21.4 19.4,21.4 19,20.4 18.7,21.4 17.5,21.4 18.4,22.1 18,23.3 19,22.6 20,23.3 19.5,22.1 	"/>
	<polygon class="st0" points="22,17.6 21.6,18.7 20.5,18.7 21.4,19.4 21,20.5 22,19.8 22.9,20.5 22.5,19.4 23.5,18.7 22.4,18.7 	"/>
	<polygon class="st0" points="22.4,24.2 22,23.2 21.6,24.2 20.5,24.2 21.4,24.9 21,26.1 22,25.3 22.9,26.1 22.5,24.9 23.5,24.2 	"/>
	<polygon class="st0" points="16.6,24.2 16.3,23.2 15.9,24.2 14.7,24.2 15.6,24.9 15.3,26.1 16.3,25.3 17.2,26.1 16.8,24.9 
		17.8,24.2 	"/>
	<polygon class="st0" points="3.8,20.5 4.8,19.8 5.8,20.5 5.3,19.4 6.3,18.7 5.2,18.7 4.8,17.6 4.4,18.7 3.3,18.7 4.2,19.4 	"/>
	<polygon class="st0" points="5.2,24.2 4.8,23.2 4.4,24.2 3.3,24.2 4.2,24.9 3.8,26.1 4.8,25.3 5.8,26.1 5.3,24.9 6.3,24.2 	"/>
	<polygon class="st0" points="9.1,21.4 7.8,21.4 7.5,20.4 7.2,21.4 5.9,21.4 6.9,22.1 6.6,23.3 7.5,22.6 8.5,23.3 8.1,22.1 	"/>
	<polygon class="st0" points="10.9,24.2 10.5,23.2 10.2,24.2 9,24.2 9.9,24.9 9.5,26.1 10.5,25.3 11.5,26.1 11.1,24.9 12,24.2 	"/>
	<polygon class="st0" points="6.6,17.7 7.5,17 8.5,17.7 8.1,16.6 9.1,15.9 7.8,15.9 7.5,14.9 7.2,15.9 5.9,15.9 6.9,16.6 	"/>
	<path class="st0" d="M20.5,2l0.9,0.7L21,3.9l1-0.8l0.9,0.7l-0.4-1.1l1-0.7h-1.1l-0.3-0.8c-0.1,0-0.1,0-0.2,0L21.6,2H20.5z"/>
	<polygon class="st0" points="13.6,15.9 13.2,14.9 12.9,15.9 11.8,15.9 12.7,16.6 12.3,17.7 13.2,17 14.2,17.7 13.8,16.6 14.8,15.9 
			"/>
	<path class="st0" d="M2.8,23.3l-0.4-1.1l0.9-0.7H2.1l-0.4-1l-0.3,1H1.3c0,0.2-0.1,0.5-0.1,0.7l0,0l-0.1,0.2c0,0.3-0.1,0.6-0.1,0.8
		l0.7-0.6L2.8,23.3z"/>
	<polygon class="st0" points="16.6,18.7 16.3,17.6 15.9,18.7 14.7,18.7 15.6,19.4 15.3,20.5 16.3,19.8 17.2,20.5 16.8,19.4 
		17.8,18.7 	"/>
	<polygon class="st0" points="19.4,15.9 19,14.9 18.7,15.9 17.5,15.9 18.4,16.6 18,17.7 19,17 20,17.7 19.5,16.6 20.5,15.9 	"/>
	<polygon class="st0" points="18,6.6 19,5.9 20,6.6 19.5,5.4 20.5,4.7 19.4,4.7 19,3.7 18.7,4.7 17.5,4.7 18.4,5.4 	"/>
	<path class="st0" d="M5.1,38.4h39.8c0.8-1.2,1.5-2.5,2.1-3.8H3C3.6,35.9,4.3,37.2,5.1,38.4z"/>
	<path class="st0" d="M13.5,46.1h22.9c1.9-1,3.6-2.3,5.2-3.8H8.3C9.9,43.8,11.6,45.1,13.5,46.1z"/>
	<path class="st0" d="M2.8,15.9c-0.1,0.2-0.2,0.4-0.2,0.6l0.8-0.6H2.8z"/>
	<path class="st0" d="M2.5,16.8c-0.1,0.2-0.1,0.4-0.2,0.6l0.5,0.4L2.5,16.8z"/>
	<path class="st0" d="M1.1,26.9c0.1,1.3,0.3,2.6,0.6,3.8h46.6c0.3-1.2,0.5-2.5,0.6-3.8H25.2H1.1z"/>
	<polygon class="st0" points="10.9,18.7 10.5,17.6 10.2,18.7 9,18.7 9.9,19.4 9.5,20.5 10.5,19.8 11.5,20.5 11.1,19.4 12,18.7 	"/>
	<polygon class="st0" points="16.6,13.1 16.3,12 15.9,13.1 14.7,13.1 15.6,13.8 15.3,15 16.3,14.3 17.2,15 16.8,13.8 17.8,13.1 	"/>
	<path class="st1" d="M25.2,23v-3.8v-3.9v-3.8V7.6V3.8V1c-0.1,0-0.1,0-0.2,0c-1,0-2,0.1-2.9,0.2L22.4,2h1.1l-1,0.7l0.4,1.1L22,3.1
		l-1,0.8l0.4-1.2L20.5,2h1.1l0.3-0.8c-1.5,0.2-3,0.5-4.4,1l-0.6,0.5l0.4,1.1l-0.9-0.7l-1,0.8l0.3-1c-0.8,0.3-1.5,0.7-2.2,1.1
		l0.3,0.7h1.1l-1,0.7l0.4,1.2l-0.9-0.8l-1,0.8l0.4-1.2l-0.8-0.6c-2.3,1.5-4.3,3.4-6,5.5h1.2l0.3-1.1l0.4,1.1h1.2l-0.9,0.7l0.4,1.1
		l-1-0.7l-0.9,0.7l0.4-1.1L6,10.4c-0.7,0.9-1.3,1.8-1.8,2.7h0.3L4.8,12l0.4,1.1h1.1l-0.9,0.7L5.8,15l-1-0.7l-1,0.7l0.4-1.1l-0.3-0.2
		c-0.4,0.8-0.8,1.5-1.1,2.3h0.6l-0.8,0.6c0,0.1-0.1,0.2-0.1,0.3l0.3,1l-0.5-0.4c-0.4,1.3-0.8,2.7-1,4.1h0.2l0.3-1l0.4,1h1.2
		l-0.9,0.7l0.4,1.1l-1-0.7l-0.7,0.6C1,23.8,1,24.4,1,25c0,0.6,0,1.3,0.1,1.9h24.1V23z M18.7,4.7l0.4-1l0.4,1h1.1l-1,0.7L20,6.6
		L19,5.9L18,6.6l0.4-1.2l-0.9-0.7H18.7z M20,17.7L19,17L18,17.7l0.4-1.1l-0.9-0.7h1.2l0.4-1l0.4,1h1.1l-1,0.7L20,17.7z M17.2,20.5
		l-0.9-0.7l-1,0.7l0.4-1.1l-0.9-0.7h1.2l0.4-1l0.3,1h1.2l-1,0.7L17.2,20.5z M14.2,17.7L13.2,17l-1,0.7l0.4-1.1l-0.9-0.7h1.1l0.4-1
		l0.4,1h1.1l-1,0.7L14.2,17.7z M11.5,20.5l-1-0.7l-1,0.7l0.4-1.1l-1-0.7h1.2l0.3-1l0.4,1H12l-0.9,0.7L11.5,20.5z M17.2,15l-0.9-0.7
		l-1,0.7l0.4-1.1l-0.9-0.7h1.2l0.4-1.1l0.3,1.1h1.2l-1,0.7L17.2,15z M20,12.2L19,11.5L18,12.2l0.4-1.1l-0.9-0.7h1.2L19,9.2l0.4,1.1
		h1.1l-1,0.7L20,12.2z M15.9,7.6l0.4-1.1l0.3,1.1h1.2l-1,0.7l0.4,1.1l-0.9-0.7l-1,0.7l0.4-1.1l-0.9-0.7H15.9z M12.9,10.4l0.4-1.1
		l0.4,1.1h1.1l-1,0.7l0.4,1.1l-0.9-0.7l-1,0.7l0.4-1.1l-0.9-0.7H12.9z M9,7.6h1.2l0.3-1.1l0.4,1.1H12l-0.9,0.7l0.4,1.1l-1-0.7
		l-1,0.7l0.4-1.1L9,7.6z M10.2,13.1l0.3-1.1l0.4,1.1H12l-0.9,0.7l0.4,1.1l-1-0.7l-1,0.7l0.4-1.1l-1-0.7H10.2z M7.2,15.9l0.3-1l0.4,1
		h1.2l-0.9,0.7l0.4,1.1l-1-0.7l-0.9,0.7l0.4-1.1l-1-0.7H7.2z M3.3,18.7h1.1l0.4-1l0.4,1h1.1l-0.9,0.7l0.4,1.1l-1-0.7l-1,0.7l0.4-1.1
		L3.3,18.7z M5.8,26.1l-1-0.8l-1,0.8l0.4-1.2l-1-0.7h1.1l0.4-1l0.4,1h1.1l-0.9,0.7L5.8,26.1z M7.5,22.6l-0.9,0.8l0.4-1.2l-1-0.7h1.2
		l0.3-1l0.4,1h1.2l-0.9,0.7l0.4,1.1L7.5,22.6z M11.5,26.1l-1-0.8l-1,0.8l0.4-1.2l-1-0.7h1.2l0.3-1l0.4,1H12l-0.9,0.7L11.5,26.1z
		 M13.2,22.6l-1,0.8l0.4-1.2l-0.9-0.7h1.1l0.4-1l0.4,1h1.1l-1,0.7l0.4,1.1L13.2,22.6z M17.2,26.1l-0.9-0.8l-1,0.8l0.4-1.2l-0.9-0.7
		h1.2l0.4-1l0.3,1h1.2l-1,0.7L17.2,26.1z M19,22.6L18,23.3l0.4-1.2l-0.9-0.7h1.2l0.4-1l0.4,1h1.1l-1,0.7l0.4,1.1L19,22.6z
		 M22.9,26.1L22,25.3l-1,0.8l0.4-1.2l-0.9-0.7h1.1l0.4-1l0.4,1h1.1l-1,0.7L22.9,26.1z M22.5,19.4l0.4,1.1L22,19.8l-1,0.7l0.4-1.1
		l-0.9-0.7h1.1l0.4-1l0.4,1h1.1L22.5,19.4z M22.5,13.8l0.4,1.1L22,14.3L21,15l0.4-1.1l-0.9-0.7h1.1L22,12l0.4,1.1h1.1L22.5,13.8z
		 M22.5,8.3l0.4,1.1L22,8.7l-1,0.7l0.4-1.1l-0.9-0.7h1.1L22,6.5l0.4,1.1h1.1L22.5,8.3z"/>
	<path class="st1" d="M13.1,4.2c-0.3,0.2-0.6,0.4-0.9,0.6h0.7L13.1,4.2z"/>
	<path class="st1" d="M1.2,22.1c0,0.1,0,0.1,0,0.2L1.2,22.1L1.2,22.1z"/>
	<path class="st2" d="M25.2,26.9h23.8c0-0.6,0.1-1.3,0.1-1.9c0-0.7,0-1.3-0.1-2H25.2V26.9z"/>
	<path class="st2" d="M3,34.6h44c0.5-1.2,1-2.5,1.3-3.9H1.7C2,32,2.4,33.3,3,34.6z"/>
	<path class="st2" d="M25.2,19.2h23.1c-0.3-1.4-0.8-2.7-1.3-3.9H25.2V19.2z"/>
	<path class="st2" d="M25.2,11.5h19.7c-1-1.4-2.1-2.7-3.3-3.9H25.2V11.5z"/>
	<path class="st2" d="M8.3,42.3h33.3c1.2-1.2,2.3-2.5,3.3-3.9H5.1C6,39.8,7.1,41.1,8.3,42.3z"/>
	<path class="st2" d="M36.2,3.8C32.9,2,29.2,1,25.2,1v2.8H36.2z"/>
	<path class="st2" d="M25,49c4.2,0,8.1-1.1,11.5-2.9H13.5C16.9,47.9,20.8,49,25,49z"/>
</g>
<path class="st3" d="M25,2c12.7,0,23,10.3,23,23S37.7,48,25,48S2,37.7,2,25S12.3,2,25,2 M25,0C11.2,0,0,11.2,0,25s11.2,25,25,25
	s25-11.2,25-25S38.8,0,25,0L25,0z"/>
</svg>
