<?xml version="1.0" encoding="utf-8"?>
<!-- Generator: Adobe Illustrator 21.0.2, SVG Export Plug-In . SVG Version: 6.00 Build 0)  -->
<svg version="1.1" id="Layer_1" xmlns="http://www.w3.org/2000/svg" xmlns:xlink="http://www.w3.org/1999/xlink" x="0px" y="0px"
	 width="50px" height="50px" viewBox="0 0 50 50" style="enable-background:new 0 0 50 50;" xml:space="preserve">
<style type="text/css">
	.st0{fill:#00732F;}
	.st1{fill:#FFFFFF;}
	.st2{fill:#FF0000;}
	.st3{fill:#DDDDDD;}
</style>
<g>
	<path class="st0" d="M47.5,16.7C44.1,7.5,35.3,1,25,1c-3.5,0-6.8,0.8-9.8,2.1v13.6H47.5z"/>
	<path class="st1" d="M15.2,16.7v16.7h32.3c1-2.6,1.5-5.4,1.5-8.3s-0.5-5.7-1.5-8.3H15.2z"/>
	<path d="M15.2,46.9c3,1.4,6.3,2.1,9.8,2.1c10.3,0,19.1-6.5,22.5-15.7H15.2V46.9z"/>
	<path class="st2" d="M15.2,16.7V3.1C6.8,6.9,1,15.3,1,25s5.8,18.1,14.2,21.9V33.3V16.7z"/>
</g>
<path class="st3" d="M25,2c12.7,0,23,10.3,23,23S37.7,48,25,48S2,37.7,2,25S12.3,2,25,2 M25,0C11.2,0,0,11.2,0,25s11.2,25,25,25
	s25-11.2,25-25S38.8,0,25,0L25,0z"/>
</svg>
