<?xml version="1.0" encoding="utf-8"?>
<!-- Generator: Adobe Illustrator 21.0.2, SVG Export Plug-In . SVG Version: 6.00 Build 0)  -->
<svg version="1.1" id="Layer_1" xmlns="http://www.w3.org/2000/svg" xmlns:xlink="http://www.w3.org/1999/xlink" x="0px" y="0px"
	 width="50px" height="50px" viewBox="0 0 50 50" style="enable-background:new 0 0 50 50;" xml:space="preserve">
<style type="text/css">
	.st0{fill:#FFFFFF;}
	.st1{fill:none;}
	.st2{fill:#FF0000;}
	.st3{fill:#DDDDDD;}
</style>
<g>
	<path class="st0" d="M25,1C11.7,1,1,11.7,1,25s10.7,24,24,24s24-10.7,24-24S38.3,1,25,1z"/>
</g>
<g>
	<path class="st1" d="M48.5,20C46.5,10.7,39.3,3.5,30,1.5V20H48.5z"/>
	<path class="st1" d="M30,30v18.5c9.3-1.9,16.5-9.2,18.5-18.5H30z"/>
	<path class="st1" d="M20,1.5C10.7,3.5,3.5,10.7,1.5,20H20V1.5z"/>
	<path class="st1" d="M1.5,30c1.9,9.3,9.2,16.5,18.5,18.5V30H1.5z"/>
	<path class="st2" d="M48.5,30c0.3-1.6,0.5-3.3,0.5-5s-0.2-3.4-0.5-5H30V1.5C28.4,1.2,26.7,1,25,1s-3.4,0.2-5,0.5V20H1.5
		C1.2,21.6,1,23.3,1,25s0.2,3.4,0.5,5H20v18.5c1.6,0.3,3.3,0.5,5,0.5s3.4-0.2,5-0.5V30H48.5z"/>
</g>
<path class="st3" d="M25,2c12.7,0,23,10.3,23,23S37.7,48,25,48S2,37.7,2,25S12.3,2,25,2 M25,0C11.2,0,0,11.2,0,25s11.2,25,25,25
	s25-11.2,25-25S38.8,0,25,0L25,0z"/>
<g>
	<path class="st2" d="M14,12.7c0-0.8,0.1-1.7,0.3-2.5c-0.4,0-0.8,0.1-1.2,0.1s-0.8,0-1.2-0.1c0.2,0.8,0.3,1.6,0.3,2.5
		c-0.8,0-1.7-0.1-2.5-0.3c0,0.4,0.1,0.8,0.1,1.2s0,0.8-0.1,1.2c0.8-0.2,1.6-0.3,2.5-0.3c0,0.7-0.1,1.4-0.2,2.1c0,0.1,0,0.3-0.1,0.4
		c0.4,0,0.8-0.1,1.2-0.1s0.8,0,1.2,0.1c0-0.1,0-0.3-0.1-0.4c-0.1-0.7-0.2-1.4-0.2-2.1c0.8,0,1.7,0.1,2.5,0.3c0-0.4-0.1-0.8-0.1-1.2
		s0-0.8,0.1-1.2C15.6,12.6,14.8,12.7,14,12.7z"/>
	<path class="st2" d="M37.8,35.5c0-0.7,0.1-1.4,0.2-2.1c0-0.1,0-0.3,0.1-0.4c-0.4,0-0.8,0.1-1.2,0.1s-0.8,0-1.2-0.1
		c0,0.1,0,0.3,0.1,0.4c0.1,0.7,0.2,1.4,0.2,2.1c-0.8,0-1.7-0.1-2.5-0.3c0,0.4,0.1,0.8,0.1,1.2s0,0.8-0.1,1.2
		c0.8-0.2,1.6-0.3,2.5-0.3c0,0.8-0.1,1.7-0.3,2.5c0.4,0,0.8-0.1,1.2-0.1s0.8,0,1.2,0.1c-0.2-0.8-0.3-1.6-0.3-2.5
		c0.8,0,1.7,0.1,2.5,0.3c0-0.4-0.1-0.8-0.1-1.2s0-0.8,0.1-1.2C39.5,35.4,38.6,35.5,37.8,35.5z"/>
	<path class="st2" d="M40.3,12.4c-0.8,0.2-1.6,0.3-2.5,0.3c0-0.8,0.1-1.7,0.3-2.5c-0.4,0-0.8,0.1-1.2,0.1s-0.8,0-1.2-0.1
		c0.2,0.8,0.3,1.6,0.3,2.5c-0.8,0-1.7-0.1-2.5-0.3c0,0.4,0.1,0.8,0.1,1.2s0,0.8-0.1,1.2c0.8-0.2,1.6-0.3,2.5-0.3
		c0,0.7-0.1,1.4-0.2,2.1c0,0.1,0,0.3-0.1,0.4c0.4,0,0.8-0.1,1.2-0.1s0.8,0,1.2,0.1c0-0.1,0-0.3-0.1-0.4c-0.1-0.7-0.2-1.4-0.2-2.1
		c0.8,0,1.7,0.1,2.5,0.3c0-0.4-0.1-0.8-0.1-1.2S40.2,12.8,40.3,12.4z"/>
	<path class="st2" d="M14,35.5c0-0.7,0.1-1.4,0.2-2.1c0-0.1,0-0.3,0.1-0.4c-0.4,0-0.8,0.1-1.2,0.1s-0.8,0-1.2-0.1
		c0,0.1,0,0.3,0.1,0.4c0.1,0.7,0.2,1.4,0.2,2.1c-0.8,0-1.7-0.1-2.5-0.3c0,0.4,0.1,0.8,0.1,1.2s0,0.8-0.1,1.2
		c0.8-0.2,1.6-0.3,2.5-0.3c0,0.8-0.1,1.7-0.3,2.5c0.4,0,0.8-0.1,1.2-0.1s0.8,0,1.2,0.1C14.1,39,14,38.1,14,37.3
		c0.8,0,1.7,0.1,2.5,0.3c0-0.4-0.1-0.8-0.1-1.2s0-0.8,0.1-1.2C15.6,35.4,14.8,35.5,14,35.5z"/>
</g>
</svg>
