<?xml version="1.0" encoding="utf-8"?>
<!-- Generator: Adobe Illustrator 21.0.2, SVG Export Plug-In . SVG Version: 6.00 Build 0)  -->
<svg version="1.1" id="Layer_1" xmlns="http://www.w3.org/2000/svg" xmlns:xlink="http://www.w3.org/1999/xlink" x="0px" y="0px"
	 width="50px" height="50px" viewBox="0 0 50 50" style="enable-background:new 0 0 50 50;" xml:space="preserve">
<style type="text/css">
	.st0{fill:#0082CA;}
	.st1{fill:#D9272E;}
	.st2{fill:#00953A;}
	.st3{fill:#FFFFFF;}
	.st4{fill:#DDDDDD;}
</style>
<g>
	<path class="st0" d="M25,1C14.7,1,6,7.4,2.5,16.5h44.9C44,7.4,35.3,1,25,1z"/>
	<path class="st1" d="M1,25c0,3,0.5,5.9,1.5,8.5h44.9c1-2.6,1.5-5.5,1.5-8.5s-0.5-5.9-1.5-8.5H2.5C1.5,19.1,1,22,1,25z M30.1,21.4
		l0.6,2l1.9-0.9l-0.9,1.9l2,0.6l-2,0.7l0.9,1.9l-1.8-0.9l-0.7,1.9l-0.7-1.9l-1.8,0.9l0.8-1.9L26.5,25l1.9-0.6l-0.8-1.9l1.8,0.9
		L30.1,21.4z M22.9,18.7c2.1,0,4,1,5.1,2.5c-1-0.9-2.2-1.4-3.7-1.4c-3,0-5.4,2.3-5.4,5.3c0,3,2.4,5.4,5.4,5.4c1.4,0,2.7-0.5,3.7-1.4
		c-1.2,1.5-3.1,2.5-5.1,2.5c-3.6,0-6.5-2.9-6.5-6.5C16.4,21.5,19.3,18.7,22.9,18.7z"/>
	<path class="st2" d="M25,49c10.3,0,19-6.4,22.5-15.5H2.5C6,42.6,14.7,49,25,49z"/>
	<polygon class="st3" points="28.4,24.4 26.5,25 28.4,25.8 27.6,27.7 29.4,26.8 30.1,28.6 30.8,26.8 32.6,27.7 31.7,25.8 33.7,25 
		31.7,24.4 32.6,22.5 30.7,23.4 30.1,21.4 29.4,23.4 27.6,22.5 	"/>
	<path class="st3" d="M22.9,31.5c2.1,0,4-1,5.1-2.5c-1,0.9-2.2,1.4-3.7,1.4c-3,0-5.4-2.4-5.4-5.4c0-3,2.4-5.3,5.4-5.3
		c1.4,0,2.7,0.5,3.7,1.4c-1.2-1.5-3.1-2.5-5.1-2.5c-3.6,0-6.5,2.9-6.5,6.4C16.4,28.6,19.3,31.5,22.9,31.5z"/>
</g>
<path class="st4" d="M25,2c12.7,0,23,10.3,23,23S37.7,48,25,48S2,37.7,2,25S12.3,2,25,2 M25,0C11.2,0,0,11.2,0,25s11.2,25,25,25
	s25-11.2,25-25S38.8,0,25,0L25,0z"/>
</svg>
