<?xml version="1.0" encoding="utf-8"?>
<!-- Generator: Adobe Illustrator 21.0.2, SVG Export Plug-In . SVG Version: 6.00 Build 0)  -->
<svg version="1.1" id="Layer_1" xmlns="http://www.w3.org/2000/svg" xmlns:xlink="http://www.w3.org/1999/xlink" x="0px" y="0px"
	 width="50px" height="50px" viewBox="0 0 50 50" style="enable-background:new 0 0 50 50;" xml:space="preserve">
<style type="text/css">
	.st0{fill:#33B733;}
	.st1{fill:#CE1126;}
	.st2{fill:#FFFFFF;}
	.st3{fill:#0099B5;}
	.st4{fill:#DDDDDD;}
</style>
<g>
	<path class="st0" d="M25,49c10.1,0,18.7-6.2,22.2-15H2.8C6.3,42.8,14.9,49,25,49z"/>
	<path class="st1" d="M2.8,34h44.5c0.1-0.4,0.3-0.7,0.4-1.1H2.3C2.5,33.3,2.6,33.7,2.8,34z"/>
	<path class="st2" d="M1,25c0,2.8,0.5,5.4,1.3,7.9h45.3c0.9-2.5,1.3-5.1,1.3-7.9c0-2.8-0.5-5.5-1.4-8H2.4C1.5,19.5,1,22.2,1,25z"/>
	<path class="st1" d="M2.4,17h45.3c-0.1-0.4-0.3-0.7-0.4-1.1H2.8C2.6,16.3,2.5,16.7,2.4,17z"/>
	<path class="st3" d="M47.2,15.9c-2.3-5.7-6.8-10.3-12.5-12.9l-0.1,0.1L34.9,4l-0.7-0.5L33.5,4l0.3-0.8L33,2.6h0.7
		C31,1.6,28.1,1,25,1c-2.8,0-5.5,0.5-8,1.4l0.2,0.1l0.3,0.2l0.3,0.2L18.1,3l-0.5-0.1l-0.6,0l-0.5,0L16,3l-0.5,0.1L15,3.3l-0.4,0.2
		l-0.4,0.2L13.7,4l-0.4,0.3L13,4.7l-0.3,0.4l-0.3,0.4L12.3,6l-0.2,0.4l-0.1,0.5l-0.1,0.5l0,0.5l0,0.5l0.1,0.5l0.1,0.5l0.2,0.5
		l0.2,0.4l0.3,0.4l0.3,0.4l0.3,0.4l0.4,0.3l0.4,0.3l0.4,0.3l0.4,0.2l0.5,0.1l0.5,0.1l0.5,0.1l0.5,0l0.6,0l0.5-0.1L17.7,13l-0.4,0.2
		l-0.5,0.2l-0.5,0.2l-0.5,0.1l-0.5,0.1L14.9,14h-0.5l-0.6,0l-0.6-0.1l-0.6-0.1l-0.6-0.2l-0.6-0.3l-0.5-0.3l-0.5-0.4l-0.4-0.4
		l-0.4-0.4l-0.4-0.5l-0.3-0.5l-0.3-0.5L8.3,9.7L8.2,9.1L8.1,8.5L8,8c-2.2,2.2-4,4.9-5.3,7.9H47.2z M38.8,7.5L39,6.7l0.3,0.8h0.9
		L39.5,8l0.3,0.9L39,8.3l-0.7,0.5L38.6,8l-0.7-0.5H38.8z M38.8,12.4l0.3-0.8l0.3,0.8h0.9l-0.7,0.5l0.3,0.8L39,13.2l-0.7,0.5l0.3-0.8
		l-0.7-0.5H38.8z M33.9,7.5l0.3-0.8l0.3,0.8h0.9L34.6,8l0.3,0.9l-0.7-0.5l-0.7,0.5L33.8,8L33,7.5H33.9z M33.9,12.4l0.3-0.8l0.3,0.8
		h0.9l-0.7,0.5l0.3,0.8l-0.7-0.5l-0.7,0.5l0.3-0.8L33,12.4H33.9z M29.1,2.6l0.3-0.8l0.3,0.8h0.9l-0.7,0.5L30.1,4l-0.7-0.5L28.7,4
		l0.3-0.8l-0.7-0.5H29.1z M29.1,7.5l0.3-0.8l0.3,0.8h0.9L29.8,8l0.3,0.9l-0.7-0.5l-0.7,0.5L28.9,8l-0.7-0.5H29.1z M29.1,12.4
		l0.3-0.8l0.3,0.8h0.9l-0.7,0.5l0.3,0.8l-0.7-0.5l-0.7,0.5l0.3-0.8l-0.7-0.5H29.1z M24.3,7.5l0.3-0.8l0.3,0.8h0.9L25,8l0.3,0.9
		l-0.7-0.5l-0.7,0.5L24.1,8l-0.7-0.5H24.3z M24.3,12.4l0.3-0.8l0.3,0.8h0.9L25,12.9l0.3,0.8l-0.7-0.5l-0.7,0.5l0.3-0.8l-0.7-0.5
		H24.3z M19.5,12.4l0.3-0.8l0.3,0.8h0.9l-0.7,0.5l0.3,0.8l-0.7-0.5L19,13.7l0.3-0.8l-0.7-0.5H19.5z"/>
	<path class="st2" d="M8.2,9.1l0.1,0.6l0.2,0.6l0.3,0.5l0.3,0.5l0.4,0.5l0.4,0.4l0.4,0.4l0.5,0.4l0.5,0.3l0.6,0.3l0.6,0.2l0.6,0.1
		l0.6,0.1l0.6,0h0.5l0.5-0.1l0.5-0.1l0.5-0.1l0.5-0.2l0.5-0.2l0.4-0.2l0.4-0.3l-0.5,0.1l-0.6,0l-0.5,0L16,12.8l-0.5-0.1L15,12.5
		l-0.4-0.2L14.1,12l-0.4-0.3l-0.4-0.3L13,11.1l-0.3-0.4l-0.3-0.4l-0.2-0.4l-0.2-0.5l-0.1-0.5l-0.1-0.5l0-0.5l0-0.5l0.1-0.5l0.1-0.5
		L12.3,6l0.2-0.4l0.3-0.4L13,4.7l0.3-0.4L13.7,4l0.4-0.3l0.4-0.2L15,3.3l0.5-0.2L16,3l0.5-0.1l0.5,0l0.6,0L18.1,3l-0.3-0.2l-0.3-0.2
		l-0.3-0.2L17,2.4C13.6,3.6,10.5,5.5,8,8l0,0.5L8.2,9.1z"/>
	<polygon class="st2" points="19,13.7 19.7,13.2 20.4,13.7 20.2,12.9 20.9,12.4 20,12.4 19.7,11.6 19.5,12.4 18.6,12.4 19.3,12.9 	
		"/>
	<polygon class="st2" points="23.8,13.7 24.5,13.2 25.3,13.7 25,12.9 25.7,12.4 24.8,12.4 24.5,11.6 24.3,12.4 23.4,12.4 24.1,12.9 
			"/>
	<polygon class="st2" points="28.7,13.7 29.4,13.2 30.1,13.7 29.8,12.9 30.5,12.4 29.7,12.4 29.4,11.6 29.1,12.4 28.2,12.4 
		28.9,12.9 	"/>
	<polygon class="st2" points="33.5,13.7 34.2,13.2 34.9,13.7 34.6,12.9 35.4,12.4 34.5,12.4 34.2,11.6 33.9,12.4 33,12.4 33.8,12.9 
			"/>
	<polygon class="st2" points="38.3,13.7 39,13.2 39.8,13.7 39.5,12.9 40.2,12.4 39.3,12.4 39,11.6 38.8,12.4 37.9,12.4 38.6,12.9 	
		"/>
	<polygon class="st2" points="23.8,8.9 24.5,8.3 25.3,8.9 25,8 25.7,7.5 24.8,7.5 24.5,6.7 24.3,7.5 23.4,7.5 24.1,8 	"/>
	<polygon class="st2" points="28.7,8.9 29.4,8.3 30.1,8.9 29.8,8 30.5,7.5 29.7,7.5 29.4,6.7 29.1,7.5 28.2,7.5 28.9,8 	"/>
	<polygon class="st2" points="33.5,8.9 34.2,8.3 34.9,8.9 34.6,8 35.4,7.5 34.5,7.5 34.2,6.7 33.9,7.5 33,7.5 33.8,8 	"/>
	<polygon class="st2" points="38.3,8.9 39,8.3 39.8,8.9 39.5,8 40.2,7.5 39.3,7.5 39,6.7 38.8,7.5 37.9,7.5 38.6,8 	"/>
	<polygon class="st2" points="28.7,4 29.4,3.5 30.1,4 29.8,3.2 30.5,2.6 29.7,2.6 29.4,1.8 29.1,2.6 28.2,2.6 28.9,3.2 	"/>
	<path class="st2" d="M33.8,3.2L33.5,4l0.7-0.5L34.9,4l-0.3-0.8l0.1-0.1c-0.3-0.2-0.7-0.3-1.1-0.4H33L33.8,3.2z"/>
</g>
<path class="st4" d="M25,2c12.7,0,23,10.3,23,23S37.7,48,25,48S2,37.7,2,25S12.3,2,25,2 M25,0C11.2,0,0,11.2,0,25s11.2,25,25,25
	s25-11.2,25-25S38.8,0,25,0L25,0z"/>
</svg>
