<?xml version="1.0" encoding="utf-8"?>
<!-- Generator: Adobe Illustrator 21.0.2, SVG Export Plug-In . SVG Version: 6.00 Build 0)  -->
<svg version="1.1" id="Layer_1" xmlns="http://www.w3.org/2000/svg" xmlns:xlink="http://www.w3.org/1999/xlink" x="0px" y="0px"
	 width="50px" height="50px" viewBox="0 0 50 50" style="enable-background:new 0 0 50 50;" xml:space="preserve">
<style type="text/css">
	.st0{fill:#E6223C;}
	.st1{fill:#FFCC00;}
	.st2{fill:#DDDDDD;}
</style>
<g>
	<path class="st0" d="M25,1C11.7,1,1,11.7,1,25s10.7,24,24,24s24-10.7,24-24S38.3,1,25,1z M37.2,23.1l-0.1,0.2l-0.2,0.2l-0.2,0.1
		l-0.3,0.1l-0.3,0.1l-0.3,0.1l-0.7,0.1l-0.7,0L33.6,24l-0.4,0l-0.3,0.1l-0.3,0.1l-0.3,0.1l-0.1-1.1l0.2-0.1l0.2-0.1l0.2,0h0.3
		l0.6,0.1l0.6,0.1l0.7,0.1h0.4l0.4,0l0.4,0l0.4-0.1l0.4-0.1L37.2,23.1z M36.4,21.4l0.4-0.2l-0.1,0.2l-0.1,0.2l-0.2,0.2L36,21.9
		l-0.3,0.1l-0.3,0.1l-0.7,0.2l-0.7,0.1l-0.7,0.2L33,22.8l-0.3,0.1L32.4,23l-0.3,0.1l-0.3-1L32,22l0.2-0.1l0.2-0.1l0.3,0l0.6,0h0.6
		l0.7,0l0.4,0l0.4,0l0.4-0.1l0.4-0.1L36.4,21.4z M35.4,19.8l0.3-0.2l0.3-0.2l-0.1,0.3l-0.1,0.2l-0.2,0.2l-0.2,0.2l-0.2,0.1l-0.3,0.1
		l-0.6,0.3l-0.7,0.3l-0.7,0.3l-0.3,0.2l-0.3,0.1L32,21.9l-0.2,0.2l-0.5-0.9l0.1-0.2l0.2-0.1l0.2-0.1l0.2-0.1l0.6-0.1l0.6-0.1
		l0.7-0.1l0.4-0.1l0.4-0.1L35,20L35.4,19.8z M34.1,18.5l0.3-0.2l0.3-0.3l0.3-0.3l0,0.3l-0.1,0.2l-0.1,0.2l-0.2,0.2l-0.2,0.2
		l-0.3,0.2l-0.6,0.4l-0.6,0.4l-0.6,0.4l-0.3,0.2l-0.3,0.2l-0.2,0.2l-0.2,0.2l-0.6-0.9l0.1-0.2l0.2-0.2l0.2-0.1l0.2-0.1l0.5-0.2
		l0.6-0.2l0.6-0.2l0.3-0.1l0.3-0.1L34.1,18.5z M21.4,29.7l-0.5-0.4l0.1-0.6l0.1-0.5l0.1-0.5l0.2-0.5l0.1-0.4l0.2-0.5l0.2-0.4
		l0.2-0.4l0.2-0.4l0.2-0.4l0.2-0.4l0.2-0.3l0.5-0.6l0.5-0.5l0.5,0.4L24,23.9l-0.5,0.6l-0.3,0.3L23,25.2l-0.2,0.4L22.5,26l-0.2,0.4
		l-0.2,0.4l-0.2,0.4l-0.1,0.4l-0.1,0.5l-0.1,0.5l-0.1,0.5L21.4,29.7L21.4,29.7z M20.3,28.7L20,28.3L19.7,28l0.3-1l0.3-0.9l0.4-0.8
		l0.4-0.7l0.4-0.7l0.4-0.6l0.5-0.5l0.5-0.5l0.6,0.4l-0.6,0.5l-0.6,0.6L22,24.3l-0.2,0.4L21.5,25l-0.2,0.4l-0.2,0.4l-0.2,0.4
		l-0.2,0.4L20.5,27l-0.1,0.4l-0.1,0.5l-0.1,0.5L20.3,28.7z M28.6,20.3l-0.8,0.2L27,20.7l-0.4,0.1L26.2,21l-0.7-0.4l0.5-0.2l0.4-0.1
		l0.4-0.1l0.4-0.1l0.9-0.1l0.8-0.1l0.4,0.3L28.6,20.3z M29.6,20.5l0.2,0.2l-0.6,0.1L28.5,21l-0.7,0.3l-0.7,0.3l-0.4-0.3l0.8-0.3
		l0.7-0.2l0.7-0.2L29.6,20.5z M24.5,21.9L24,22.3l-0.6-0.4l0.4-0.3l0.4,0.2L24.5,21.9z M24.2,21.3l0.4-0.2l0.3-0.2l0.4,0.2l0.4,0.2
		l-0.7,0.4L24.2,21.3z M24.9,22.2l0.5,0.4L24.9,23l-0.5-0.4L24.9,22.2z M25.4,21.9l0.7-0.4l0.5,0.3l-0.6,0.4L25.4,21.9z M28.1,19.6
		l-0.4,0.1l-0.4,0.1l-0.5,0.1l-0.4,0.1L25.9,20l-0.5,0.2l-0.5,0.2l-0.5-0.2L24,20.1l-0.5-0.1L23,19.8l-0.4-0.1l-0.4-0.1l-0.4-0.1
		h-0.4l0.4-0.3l0.4-0.2l0.4-0.2l0.4-0.2l0.5-0.1l0.5-0.1l0.5-0.1l0.5,0l0.5,0l0.5,0.1l0.5,0.1l0.4,0.1l0.4,0.2l0.4,0.2l0.4,0.2
		l0.4,0.2L28.1,19.6z M21.7,20l0.9,0.1l0.4,0.1l0.4,0.1l0.4,0.1l0.5,0.1L23.7,21l-0.4-0.2l-0.4-0.1l-0.8-0.2l-0.8-0.2l-0.7-0.1
		l0.4-0.4L21.7,20z M21,20.6l0.7,0.2l0.8,0.2l0.7,0.3l-0.4,0.3l-0.7-0.3l-0.7-0.2l-0.6-0.2l-0.6-0.1l0.2-0.2L21,20.6z M20.5,21.2
		l0.6,0.2l0.6,0.2l0.6,0.3l-0.5,0.4l-0.5,0.5L21,23.4l-0.4,0.6l-0.4,0.6l-0.4,0.6l-0.4,0.7l-0.3,0.8L19,26.2l-0.1-0.5l-0.1-0.5
		l0-0.6l0-0.5l0.1-0.5l0.1-0.5l0.1-0.5l0.1-0.4l0.2-0.4l0.2-0.4l0.3-0.4L20.5,21.2z M22.3,29.6l0.1-0.5l0.1-0.5l0.1-0.5l0.1-0.5
		l0.1-0.4l0.1-0.4l0.2-0.4l0.2-0.4l0.2-0.4l0.2-0.4l0.2-0.3l0.4-0.6l0.5-0.6l0.5,0.6l0.4,0.6l0.2,0.3l0.2,0.4l0.2,0.4l0.2,0.4
		l0.2,0.4l0.2,0.4l0.1,0.4l0.1,0.5l0.1,0.5l0.1,0.5l0.1,0.6l0.1,0.6l-0.3,0.1l-0.3,0.1l-0.3,0.1l-0.4,0.1l-0.4,0.1l-0.4,0.1l-0.4,0
		H25h-0.4l-0.4,0l-0.4-0.1l-0.3-0.1l-0.4-0.1l-0.3-0.1l-0.3-0.1l-0.3-0.1L22.3,29.6z M27.6,26.4L27.4,26l-0.2-0.4L27,25.2l-0.3-0.4
		l-0.3-0.3l-0.5-0.6l-0.6-0.6l0.5-0.4l0.5,0.5l0.5,0.6l0.2,0.3l0.2,0.4l0.2,0.4l0.2,0.4l0.2,0.4l0.2,0.4l0.2,0.4l0.2,0.5l0.1,0.5
		l0.1,0.5l0.1,0.5l0.1,0.6l-0.4,0.3l-0.1-0.5l-0.1-0.5l-0.1-0.5l-0.1-0.5L28,27.2l-0.2-0.4L27.6,26.4z M28.9,25.8l-0.2-0.4L28.4,25
		l-0.2-0.4L28,24.3l-0.5-0.6l-0.6-0.6l-0.6-0.5l0.3-0.2l0.3-0.2l0.5,0.5l0.5,0.5l0.5,0.6l0.4,0.6l0.4,0.8l0.4,0.8l0.3,0.9l0.3,1
		l-0.2,0.3l-0.2,0.2L29.7,28l-0.1-0.5L29.4,27l-0.2-0.4l-0.2-0.4L28.9,25.8z M30.2,25.2l-0.4-0.7l-0.4-0.6l-0.5-0.6l-0.5-0.5
		L28,22.3l-0.5-0.4l0.6-0.3l0.6-0.3l0.6-0.2L30,21l0.3,0.4l0.3,0.4l0.2,0.4l0.2,0.5l0.1,0.5l0.1,0.5l0.1,0.5l0,0.5l0,0.5l-0.1,0.5
		L31,26.2l-0.1,0.5l-0.3-0.8L30.2,25.2z M32.7,17.4l0.3-0.2l0.3-0.3l0.2-0.3l0.2-0.4v0.3l0,0.3L33.6,17l-0.1,0.3l-0.2,0.2L33,17.8
		l-0.5,0.4l-0.6,0.5l-0.6,0.5l-0.3,0.2l-0.2,0.3l-0.2,0.2l-0.2,0.3l-0.7-0.7l0.1-0.2L30,19l0.2-0.1l0.2-0.2l0.5-0.3l0.6-0.3l0.6-0.3
		l0.3-0.2L32.7,17.4z M31.1,16.5l0.3-0.3l0.2-0.3l0.2-0.3l0.2-0.3l0.2-0.4l0,0.3v0.2l-0.1,0.3l-0.1,0.3L32,16.3l-0.2,0.3l-0.4,0.5
		l-0.5,0.6l-0.5,0.6l-0.2,0.3L30,18.8l-0.1,0.3l-0.1,0.3l-0.9-0.6l0.1-0.2l0.1-0.2l0.1-0.2l0.2-0.2l0.4-0.4l0.5-0.4l0.5-0.4
		L31.1,16.5z M29.7,15.7l0.2-0.3l0.2-0.3l0.2-0.3l0.1-0.4l0.1-0.4l0.1,0.2l0.1,0.3l0,0.3l-0.1,0.3l-0.1,0.3l-0.1,0.3L30,16.2
		l-0.4,0.6l-0.4,0.6l-0.1,0.3l-0.1,0.3l-0.1,0.3l-0.1,0.3l-0.9-0.5l0-0.2l0.1-0.2l0.1-0.2l0.1-0.2l0.4-0.4l0.4-0.4l0.5-0.5
		L29.7,15.7z M28,15.4l0.2-0.3l0.2-0.3l0.1-0.4l0.1-0.4l0.1-0.4l0-0.4l0.1,0.2l0.1,0.3l0,0.3l0,0.3l-0.1,0.3l-0.1,0.3l-0.3,0.6
		l-0.3,0.7L28,16.9l-0.1,0.3l-0.1,0.3l-0.1,0.3l0,0.3l-1-0.3v-0.2l0.1-0.2l0.1-0.2l0.1-0.2l0.3-0.5l0.4-0.5L28,15.4z M25.7,16.7
		l0.2-0.5l0.3-0.6l0.3-0.6l0.1-0.3l0.1-0.4l0.1-0.4l0.1-0.4l0.1-0.4l0-0.4l0.2,0.2l0.1,0.2l0.1,0.3v0.3v0.3l-0.1,0.3l-0.1,0.7
		l-0.2,0.7l-0.2,0.7l-0.1,0.4l-0.1,0.3v0.3l0,0.3l-1.1-0.2l0-0.2v-0.2l0.1-0.2L25.7,16.7z M24.3,17l0-0.3l0.1-0.6l0.2-0.6l0.2-0.6
		l0.1-0.4l0.1-0.4l0.1-0.4v-0.4l0-0.4L25,12.7l0.2,0.2l0.1,0.2l0.1,0.2l0.1,0.3l0,0.3v0.3l-0.1,0.7l-0.1,0.7l-0.1,0.7v0.4v0.3
		l0.1,0.3l0.1,0.3h-1.1l-0.1-0.2l0-0.2L24.3,17z M23.1,16.9l0.1-0.6l0.1-0.6l0.1-0.7l0-0.4v-0.4v-0.4l-0.1-0.4l-0.1-0.4l-0.1-0.4
		l0.2,0.1l0.2,0.2l0.1,0.2l0.1,0.3l0.1,0.3l0.1,0.3l0.1,0.7l0.1,0.7l0.1,0.7l0,0.4l0.1,0.4l0.1,0.3l0.1,0.3l-1.1,0.1l-0.1-0.2
		l-0.1-0.2l0-0.3V16.9z M21.4,13.4l0.2,0.1l0.1,0.2l0.1,0.2l0.1,0.3l0.1,0.3l0.2,0.7l0.2,0.7l0.1,0.7l0.1,0.4l0.1,0.3l0.1,0.3
		l0.1,0.3l-1,0.3L22,18l-0.1-0.2l-0.1-0.2l0-0.3l-0.1-0.6v-0.6v-0.7l0-0.4l-0.1-0.4l-0.1-0.4L21.5,14l-0.1-0.4l-0.2-0.4L21.4,13.4z
		 M19.6,14.1l0.2,0.1l0.2,0.2l0.2,0.2l0.2,0.3l0.1,0.3l0.3,0.6l0.3,0.7l0.3,0.7l0.1,0.3l0.2,0.3l0.2,0.3l0.2,0.2l-1,0.5L21,18.6
		l-0.1-0.2l-0.1-0.2l-0.1-0.2l-0.1-0.6l-0.1-0.6L20.3,16l-0.1-0.3l-0.1-0.4L20,15l-0.1-0.3l-0.2-0.3L19.4,14L19.6,14.1z M18,15.1
		l0.3,0.1l0.2,0.1l0.2,0.2l0.2,0.2l0.2,0.3l0.4,0.6l0.4,0.6l0.4,0.6l0.2,0.3l0.2,0.3l0.2,0.2l0.2,0.2l-0.9,0.6L20,19.3l-0.1-0.2
		l-0.1-0.2l-0.1-0.2l-0.2-0.5l-0.2-0.6l-0.2-0.6l-0.1-0.3l-0.1-0.3l-0.2-0.3l-0.2-0.3L18,15.3l-0.3-0.3L18,15.1z M16.5,16.3l0.3,0.1
		l0.2,0.1l0.2,0.1l0.3,0.2l0.2,0.2l0.4,0.5l0.5,0.6l0.5,0.6l0.3,0.3l0.2,0.2l0.3,0.2l0.3,0.2l-0.8,0.7l-0.2-0.1L19,20l-0.1-0.2
		l-0.2-0.2l-0.3-0.5l-0.3-0.6l-0.3-0.6l-0.2-0.3l-0.2-0.3l-0.2-0.3l-0.3-0.3l-0.3-0.2l-0.3-0.2H16.5z M15.2,17.7h0.3l0.3,0.1
		l0.3,0.1l0.3,0.1l0.3,0.2l0.5,0.4l0.6,0.5l0.6,0.5l0.3,0.2l0.3,0.2l0.3,0.1l0.3,0.1l-0.6,0.9l-0.2-0.1L18.3,21l-0.2-0.2l-0.2-0.2
		l-0.4-0.4l-0.4-0.5l-0.4-0.5l-0.2-0.3l-0.3-0.3L16,18.4l-0.3-0.2l-0.3-0.2L15,17.8L15.2,17.7z M14.2,19.3l0.3,0l0.3,0l0.3,0.1
		l0.3,0.1l0.3,0.1l0.6,0.4l0.6,0.4l0.6,0.4l0.3,0.2l0.3,0.1l0.3,0.1l0.3,0.1l-0.5,0.9l-0.2,0l-0.2-0.1L17.5,22l-0.2-0.1l-0.4-0.4
		L16.4,21l-0.5-0.5l-0.3-0.2l-0.3-0.2L15,19.9l-0.3-0.2l-0.4-0.1L14,19.4L14.2,19.3z M13.5,21.1l0.2-0.1H14l0.3,0l0.3,0.1l0.3,0.1
		l0.6,0.3l0.7,0.3l0.7,0.3l0.3,0.1l0.3,0.1l0.3,0.1l0.3,0l-0.3,1h-0.2l-0.2,0l-0.2-0.1l-0.2-0.1l-0.5-0.3l-0.5-0.4L15.3,22L15,21.8
		l-0.3-0.2l-0.3-0.1L14,21.4l-0.4-0.1l-0.4-0.1L13.5,21.1z M13,22.9l0.2-0.1l0.2-0.1l0.3,0l0.3,0l0.3,0l0.7,0.1l0.7,0.2l0.7,0.1
		l0.4,0.1l0.3,0.1h0.3l0.3,0l-0.2,1.1l-0.2,0h-0.2l-0.2-0.1l-0.3-0.1l-0.5-0.2l-0.6-0.3l-0.6-0.3l-0.3-0.1l-0.3-0.1l-0.4-0.1
		l-0.4-0.1l-0.4,0h-0.4L13,22.9z M12.8,24.8l0.2-0.1l0.2-0.1l0.3-0.1l0.3-0.1h0.3l0.7,0.1l0.7,0.1l0.7,0.1h0.4H17l0.3-0.1l0.3-0.1
		v1.1l-0.2,0.1l-0.2,0l-0.3,0l-0.3,0l-0.6-0.1l-0.6-0.2l-0.6-0.2L14.5,25L14.1,25l-0.4-0.1h-0.4l-0.4,0L12.6,25L12.8,24.8z
		 M12.8,26.9l0.1-0.2l0.2-0.2l0.2-0.1l0.3-0.1l0.3-0.1l0.3-0.1l0.7-0.1l0.7,0l0.7-0.1l0.4,0l0.3-0.1l0.3-0.1l0.3-0.1l0.1,1.1
		l-0.2,0.1l-0.2,0.1l-0.2,0h-0.3l-0.6-0.1l-0.6-0.1L15,26.7h-0.4l-0.4,0l-0.4,0l-0.4,0.1l-0.4,0.1L12.8,26.9z M13.6,28.6l-0.4,0.2
		l0.1-0.2l0.1-0.2l0.2-0.2l0.3-0.1l0.3-0.1l0.3-0.1l0.7-0.2l0.7-0.1l0.7-0.2l0.4-0.1l0.3-0.1l0.3-0.1l0.3-0.1l0.3,1L18,28l-0.2,0.1
		l-0.2,0.1l-0.3,0.1l-0.6,0h-0.6l-0.7,0l-0.4,0l-0.4,0l-0.4,0.1l-0.4,0.1L13.6,28.6z M14.6,30.2l-0.4,0.2L14,30.6l0.1-0.3l0.1-0.2
		l0.2-0.2l0.2-0.2l0.3-0.1l0.3-0.2l0.6-0.3l0.7-0.3l0.7-0.3l0.3-0.2l0.3-0.1l0.3-0.2l0.2-0.2l0.5,0.9L18.6,29l-0.2,0.1l-0.2,0.1
		l-0.2,0.1l-0.6,0.1l-0.6,0.1L16,29.7l-0.4,0.1l-0.3,0.1L15,30L14.6,30.2z M15.9,31.5l-0.3,0.2L15.3,32L15,32.3l0-0.3l0.1-0.2
		l0.1-0.2l0.2-0.2l0.2-0.2l0.3-0.2l0.6-0.4l0.6-0.4l0.6-0.4l0.3-0.2l0.3-0.2l0.2-0.2l0.2-0.2l0.6,0.9L19.3,30l-0.2,0.2l-0.2,0.1
		l-0.2,0.1l-0.5,0.2l-0.6,0.2L16.9,31l-0.3,0.1l-0.3,0.1L15.9,31.5z M17.3,32.6L17,32.9l-0.3,0.3l-0.2,0.3l-0.2,0.4v-0.3l0-0.3
		l0.1-0.2l0.1-0.3l0.2-0.2l0.2-0.2l0.5-0.4l0.6-0.5l0.6-0.5l0.3-0.2l0.2-0.3l0.2-0.2l0.1-0.3l0.7,0.7l-0.1,0.2L20,31l-0.2,0.1
		l-0.2,0.2l-0.5,0.3l-0.6,0.3l-0.6,0.3l-0.3,0.2L17.3,32.6z M18.9,33.5l-0.3,0.3L18.4,34l-0.2,0.3l-0.2,0.3L17.7,35l0-0.3v-0.2
		l0.1-0.3l0.1-0.3l0.1-0.3l0.2-0.3l0.5-0.5l0.5-0.6l0.5-0.6l0.2-0.3l0.2-0.3l0.1-0.3l0.1-0.3l0.9,0.6l-0.1,0.2L21,31.7l-0.1,0.2
		l-0.2,0.2l-0.5,0.4l-0.5,0.4l-0.6,0.4L18.9,33.5z M20.3,34.3L20,34.6l-0.2,0.3l-0.2,0.3l-0.1,0.4L19.4,36l-0.1-0.2l0-0.3v-0.3
		l0.1-0.3l0.1-0.3l0.1-0.3l0.4-0.6l0.4-0.6l0.4-0.6l0.1-0.3l0.1-0.3l0.1-0.3l0.1-0.3l0.9,0.5l0,0.2l-0.1,0.2l-0.1,0.2l-0.1,0.2
		l-0.4,0.4L21,33.6l-0.5,0.5L20.3,34.3z M22,34.6l-0.2,0.3l-0.2,0.3l-0.1,0.4l-0.1,0.3l-0.1,0.4l0,0.4l-0.1-0.2L21,36.2l0-0.3l0-0.3
		l0.1-0.3l0.1-0.3l0.3-0.6l0.3-0.7l0.3-0.7l0.1-0.3l0.1-0.3l0.1-0.3l0-0.3l1,0.3v0.2l0,0.2l-0.1,0.2l-0.1,0.2l-0.3,0.5l-0.4,0.5
		L22,34.6z M24.4,33.3l-0.2,0.5l-0.3,0.6L23.5,35l-0.1,0.3l-0.1,0.4L23.2,36l-0.1,0.4l0,0.4v0.4L22.9,37l-0.1-0.2l-0.1-0.3l0-0.3
		v-0.3l0.1-0.3l0.1-0.7l0.2-0.7l0.2-0.7l0.1-0.4l0.1-0.3v-0.3l0-0.3l1.1,0.2l0,0.2v0.2L24.4,33L24.4,33.3z M25.7,33l0,0.3l-0.1,0.6
		l-0.2,0.6l-0.2,0.6L25,35.5L25,35.8l-0.1,0.4v0.4l0,0.4l0.1,0.4l-0.2-0.2l-0.1-0.2l-0.1-0.2l-0.1-0.3l-0.1-0.3v-0.3l0.1-0.7
		l0.1-0.7l0.1-0.7v-0.4v-0.3l0-0.3l-0.1-0.3h1.1l0.1,0.2l0,0.2L25.7,33z M26.9,33.1l-0.1,0.6l-0.1,0.6L26.7,35l0,0.4v0.4v0.4
		l0.1,0.4l0.1,0.4l0.1,0.4L26.7,37l-0.2-0.2l-0.1-0.2l-0.1-0.3L26.2,36l-0.1-0.3L26.1,35l-0.1-0.7L26,33.6l0-0.4l-0.1-0.4l-0.1-0.3
		l-0.1-0.3l1.1-0.1l0.1,0.2l0.1,0.2l0,0.3V33.1z M28.6,36.6l-0.2-0.1l-0.2-0.2L28.1,36l-0.1-0.3l-0.1-0.3l-0.2-0.7L27.5,34l-0.1-0.7
		L27.2,33l-0.1-0.3L27,32.4l-0.2-0.3l1-0.3L28,32l0.1,0.2l0.1,0.2l0,0.3l0.1,0.6v0.6v0.7l0,0.4l0.1,0.4l0.1,0.4l0.1,0.4l0.1,0.4
		l0.2,0.4L28.6,36.6z M30.4,35.9l-0.2-0.1l-0.2-0.2l-0.2-0.2l-0.2-0.3l-0.1-0.3l-0.3-0.6l-0.3-0.7l-0.3-0.7l-0.1-0.3l-0.2-0.3
		L28.1,32l-0.2-0.2l1-0.5l0.1,0.1l0.1,0.2l0.1,0.2l0.1,0.2l0.1,0.6l0.1,0.6l0.1,0.7l0.1,0.3l0.1,0.4L30,35l0.2,0.3l0.2,0.3l0.3,0.3
		L30.4,35.9z M32,34.9l-0.2-0.1l-0.2-0.1l-0.2-0.2l-0.2-0.2L30.9,34l-0.4-0.6l-0.4-0.6l-0.4-0.6l-0.2-0.3l-0.2-0.3l-0.2-0.2
		l-0.2-0.2l0.9-0.6l0.2,0.1l0.1,0.2l0.1,0.2l0.1,0.2l0.2,0.5l0.2,0.6l0.2,0.6l0.1,0.3l0.1,0.3l0.2,0.3l0.2,0.3l0.2,0.3l0.3,0.3
		L32,34.9z M33.5,33.7l-0.3-0.1L33,33.6l-0.2-0.1l-0.3-0.2L32.3,33l-0.5-0.5l-0.5-0.6l-0.5-0.6l-0.2-0.3l-0.3-0.2l-0.3-0.2l-0.3-0.2
		l0.8-0.7l0.2,0.1L31,30l0.1,0.2l0.2,0.2l0.3,0.5l0.3,0.6l0.3,0.6l0.2,0.3l0.2,0.3l0.2,0.3l0.3,0.3l0.3,0.2l0.3,0.2H33.5z
		 M34.8,32.3h-0.3l-0.3-0.1L34,32.1l-0.3-0.1l-0.3-0.2l-0.5-0.4l-0.6-0.5l-0.6-0.5l-0.3-0.2L31.2,30L31,29.8l-0.3-0.1l0.6-0.9
		l0.2,0.1l0.2,0.1l0.2,0.2l0.2,0.2l0.4,0.4l0.4,0.5l0.4,0.5l0.2,0.3l0.2,0.3l0.3,0.2l0.3,0.2l0.4,0.2l0.4,0.2L34.8,32.3z M35.8,30.7
		l-0.3,0l-0.3,0L35,30.6l-0.3-0.1l-0.3-0.1L33.8,30l-0.6-0.4l-0.6-0.4l-0.3-0.2l-0.3-0.1l-0.3-0.1l-0.3-0.1l0.5-0.9l0.2,0l0.2,0.1
		l0.2,0.1l0.2,0.1l0.4,0.4l0.5,0.5l0.5,0.5l0.3,0.2l0.3,0.2l0.3,0.2l0.3,0.2l0.4,0.1l0.4,0.1L35.8,30.7z M36.5,28.9L36.3,29H36
		l-0.3,0l-0.3-0.1l-0.3-0.1l-0.6-0.3l-0.7-0.3L33.1,28l-0.4-0.1l-0.3-0.1l-0.3-0.1l-0.3,0l0.3-1h0.2l0.2,0l0.2,0.1l0.2,0.1l0.5,0.3
		l0.5,0.4l0.6,0.4l0.3,0.2l0.3,0.2l0.3,0.1l0.4,0.1l0.4,0.1l0.4,0.1L36.5,28.9z M37,27.1l-0.2,0.1l-0.3,0.1l-0.3,0l-0.3,0l-0.3,0
		l-0.7-0.1l-0.7-0.2l-0.7-0.1l-0.4-0.1l-0.3-0.1h-0.3l-0.3,0l0.2-1.1l0.2,0h0.2l0.2,0.1l0.3,0.1l0.5,0.2l0.6,0.3l0.6,0.3l0.3,0.1
		l0.3,0.1l0.4,0.1l0.4,0.1l0.4,0h0.4L37,27.1z M37.2,25.2L37,25.3l-0.2,0.1l-0.3,0.1l-0.3,0.1h-0.3l-0.7-0.1l-0.7-0.1l-0.7-0.1h-0.4
		H33l-0.3,0.1l-0.3,0.1v-1.1l0.2-0.1l0.2,0l0.2,0l0.3,0l0.6,0.1l0.6,0.2l0.6,0.2l0.4,0.1l0.4,0.1l0.4,0l0.4,0l0.4,0l0.4-0.1
		L37.2,25.2z"/>
	<polygon class="st1" points="26.5,21.9 26.1,21.6 25.4,21.9 25.9,22.3 	"/>
	<polygon class="st1" points="25.6,21.3 25.3,21.1 24.9,20.9 24.6,21.1 24.2,21.3 24.9,21.7 	"/>
	<polygon class="st1" points="20.4,27.5 20.5,27 20.7,26.6 20.9,26.2 21.1,25.8 21.3,25.4 21.5,25 21.7,24.7 22,24.3 22.5,23.7 
		23.1,23.1 23.6,22.6 23,22.2 22.5,22.7 22,23.2 21.6,23.9 21.1,24.5 20.8,25.3 20.4,26.1 20.1,27 19.7,28 20,28.3 20.3,28.7 
		20.1,28.4 20.3,27.9 	"/>
	<polygon class="st1" points="23.8,21.6 23.4,21.9 24,22.3 24.5,21.9 24.1,21.8 	"/>
	<polygon class="st1" points="20.1,20.7 20.8,20.9 21.4,21.1 22.1,21.3 22.8,21.6 23.2,21.3 22.5,21 21.7,20.8 21,20.6 20.3,20.5 	
		"/>
	<polygon class="st1" points="20.6,20.3 21.3,20.3 22.1,20.5 22.9,20.7 23.3,20.9 23.7,21 24.4,20.6 23.9,20.5 23.4,20.4 23,20.2 
		22.6,20.1 21.7,20 20.9,19.9 	"/>
	<polygon class="st1" points="28.1,19.9 27.3,20.1 26.8,20.2 26.4,20.3 25.9,20.5 25.5,20.6 26.2,21 26.6,20.9 27,20.7 27.8,20.4 
		28.6,20.3 29.3,20.2 28.9,19.9 	"/>
	<polygon class="st1" points="27.4,21 26.6,21.3 27.1,21.6 27.8,21.3 28.5,21 29.1,20.8 29.8,20.7 29.6,20.5 28.9,20.6 28.1,20.8 	
		"/>
	<polygon class="st1" points="25.4,22.6 24.9,22.2 24.5,22.6 24.9,23 	"/>
	<polygon class="st1" points="21.5,28.6 21.6,28.1 21.8,27.6 21.9,27.2 22.1,26.8 22.3,26.4 22.5,26 22.7,25.6 23,25.2 23.2,24.9 
		23.5,24.5 24,23.9 24.6,23.3 24.1,22.9 23.6,23.5 23.1,24.1 22.9,24.4 22.6,24.7 22.4,25.1 22.2,25.5 22,25.9 21.8,26.3 21.6,26.8 
		21.5,27.2 21.3,27.7 21.2,28.2 21,28.8 20.9,29.3 21.4,29.7 21.4,29.6 21.4,29.1 	"/>
	<polygon class="st1" points="19.7,21.4 19.4,21.8 19.2,22.3 19.1,22.7 18.9,23.2 18.9,23.6 18.8,24.1 18.8,24.6 18.8,25.2 
		18.9,25.7 19,26.2 19.1,26.7 19.4,25.9 19.8,25.2 20.1,24.6 20.5,23.9 21,23.4 21.4,22.8 21.9,22.4 22.4,21.9 21.8,21.6 21.1,21.4 
		20.5,21.2 19.9,21 	"/>
	<polygon class="st1" points="22.9,30.5 23.2,30.6 23.6,30.7 23.9,30.7 24.3,30.8 24.6,30.8 25,30.8 25.4,30.8 25.7,30.8 26.1,30.7 
		26.4,30.6 26.8,30.6 27.1,30.4 27.4,30.3 27.8,30.2 27.7,29.6 27.6,29.1 27.5,28.6 27.4,28.1 27.2,27.6 27.1,27.1 26.9,26.7 
		26.7,26.3 26.6,25.9 26.4,25.6 26.1,25.2 25.9,24.9 25.5,24.3 25,23.7 24.5,24.3 24,24.9 23.8,25.2 23.6,25.6 23.4,25.9 23.2,26.3 
		23.1,26.7 22.9,27.2 22.8,27.6 22.6,28.1 22.5,28.6 22.4,29.1 22.3,29.6 22.2,30.2 22.6,30.3 	"/>
	<polygon class="st1" points="27.7,19.1 27.3,18.9 26.9,18.7 26.4,18.6 25.9,18.5 25.5,18.4 25,18.4 24.5,18.4 24,18.5 23.5,18.6 
		23,18.7 22.6,18.9 22.1,19.1 21.7,19.4 21.4,19.6 21.7,19.6 22.1,19.7 22.6,19.7 23,19.8 23.5,19.9 24,20.1 24.4,20.2 24.9,20.4 
		25.4,20.2 25.9,20 26.3,19.9 26.8,19.8 27.2,19.7 27.7,19.6 28.1,19.6 28.5,19.5 28.1,19.3 	"/>
	<polygon class="st1" points="28,27.2 28.2,27.6 28.3,28.1 28.5,28.6 28.6,29.1 28.6,29.6 29.1,29.3 28.9,28.7 28.8,28.2 28.7,27.7 
		28.5,27.2 28.4,26.7 28.2,26.3 28,25.9 27.8,25.4 27.6,25.1 27.3,24.7 27.1,24.4 26.9,24 26.4,23.4 25.8,22.9 25.4,23.3 25.9,23.9 
		26.5,24.5 26.7,24.9 27,25.2 27.2,25.6 27.4,26 27.6,26.4 27.9,26.8 	"/>
	<polygon class="st1" points="29.3,26.6 29.4,27 29.6,27.5 29.7,28 29.9,28.4 30.1,28.2 30.2,27.9 29.9,26.9 29.6,26 29.2,25.2 
		28.8,24.5 28.4,23.8 27.9,23.2 27.4,22.7 26.9,22.2 26.6,22.4 26.3,22.6 26.9,23.1 27.4,23.7 28,24.3 28.2,24.6 28.4,25 28.7,25.4 
		28.9,25.8 29.1,26.2 	"/>
	<polygon class="st1" points="30.8,26.7 31,26.2 31.1,25.7 31.1,25.1 31.2,24.6 31.1,24.1 31.1,23.6 31,23.1 30.9,22.7 30.7,22.2 
		30.5,21.8 30.2,21.4 30,21 29.4,21.1 28.8,21.3 28.1,21.6 27.5,21.9 28,22.3 28.5,22.8 28.9,23.3 29.4,23.9 29.8,24.5 30.2,25.2 
		30.5,25.9 	"/>
	<polygon class="st1" points="24.4,17.7 25.5,17.7 25.4,17.4 25.4,17.1 25.4,16.7 25.4,16.4 25.4,15.6 25.5,14.9 25.5,14.2 
		25.5,13.9 25.5,13.6 25.4,13.3 25.3,13.1 25.2,12.9 25,12.7 25.1,13.1 25.1,13.4 25.1,13.8 25,14.2 25,14.5 24.9,14.9 24.7,15.5 
		24.5,16.1 24.4,16.7 24.3,17 24.3,17.2 24.3,17.5 	"/>
	<polygon class="st1" points="23.1,17.6 23.3,17.9 24.3,17.7 24.2,17.4 24.1,17.1 24,16.8 24,16.4 23.9,15.7 23.9,15 23.8,14.3 
		23.8,14 23.7,13.7 23.6,13.4 23.4,13.2 23.3,13 23.1,12.9 23.2,13.2 23.3,13.6 23.3,13.9 23.3,14.3 23.3,14.7 23.3,15 23.2,15.7 
		23.1,16.3 23.1,16.9 23.1,17.2 23.1,17.4 	"/>
	<polygon class="st1" points="21.5,14 21.6,14.4 21.7,14.7 21.7,15.1 21.8,15.4 21.8,16.1 21.8,16.7 21.8,17.3 21.9,17.6 21.9,17.8 
		22,18 22.2,18.2 23.2,17.9 23,17.6 22.9,17.4 22.8,17 22.6,16.7 22.5,16 22.3,15.3 22.1,14.6 22.1,14.3 21.9,14 21.8,13.8 
		21.6,13.6 21.4,13.4 21.1,13.3 21.4,13.6 	"/>
	<polygon class="st1" points="19.8,14.7 20,15 20.1,15.4 20.2,15.7 20.3,16 20.4,16.7 20.5,17.4 20.6,17.9 20.7,18.1 20.8,18.4 
		21,18.6 21.1,18.7 22.1,18.3 21.9,18 21.7,17.8 21.5,17.5 21.4,17.1 21.1,16.5 20.8,15.8 20.6,15.2 20.4,14.9 20.2,14.6 20.1,14.4 
		19.9,14.2 19.6,14.1 19.4,14 19.6,14.4 	"/>
	<polygon class="st1" points="18.3,15.6 18.5,15.9 18.6,16.2 18.8,16.6 18.9,16.9 19.2,17.5 19.4,18.1 19.6,18.7 19.7,18.9 
		19.9,19.1 20,19.3 20.2,19.4 21.1,18.8 20.8,18.6 20.6,18.4 20.4,18.1 20.2,17.8 19.8,17.2 19.4,16.6 19.1,16 18.9,15.7 18.7,15.5 
		18.4,15.3 18.2,15.2 18,15.1 17.7,15.1 18,15.3 	"/>
	<polygon class="st1" points="16.9,16.8 17.1,17.1 17.4,17.3 17.6,17.6 17.7,17.9 18.1,18.5 18.4,19.1 18.6,19.6 18.8,19.8 19,20 
		19.2,20.1 19.4,20.2 20.1,19.5 19.9,19.3 19.6,19.1 19.4,18.9 19.1,18.6 18.6,18.1 18.2,17.5 17.7,17 17.5,16.8 17.2,16.6 17,16.4 
		16.8,16.4 16.5,16.3 16.2,16.3 16.6,16.5 	"/>
	<polygon class="st1" points="15.7,18.1 16,18.4 16.2,18.6 16.5,18.9 16.7,19.1 17.1,19.7 17.5,20.2 17.9,20.6 18.1,20.8 18.3,21 
		18.5,21.1 18.7,21.2 19.3,20.3 19,20.2 18.8,20.1 18.5,19.9 18.2,19.6 17.6,19.2 17.1,18.7 16.6,18.2 16.3,18.1 16,17.9 15.8,17.8 
		15.5,17.7 15.2,17.7 15,17.8 15.4,17.9 	"/>
	<polygon class="st1" points="14.7,19.7 15,19.9 15.4,20.1 15.6,20.3 15.9,20.5 16.4,21 16.9,21.4 17.3,21.8 17.5,22 17.7,22.1 
		17.9,22.2 18.2,22.2 18.7,21.3 18.4,21.2 18.1,21.1 17.8,20.9 17.4,20.8 16.8,20.4 16.2,20 15.6,19.6 15.3,19.5 15,19.4 14.7,19.3 
		14.5,19.3 14.2,19.3 14,19.4 14.4,19.5 	"/>
	<polygon class="st1" points="14,21.4 14.4,21.5 14.7,21.6 15,21.8 15.3,22 15.9,22.4 16.4,22.7 16.9,23.1 17.1,23.2 17.4,23.3 
		17.6,23.3 17.8,23.3 18.1,22.3 17.9,22.3 17.5,22.2 17.2,22.1 16.9,22 16.2,21.7 15.5,21.4 14.9,21.2 14.6,21.1 14.3,21 14,21 
		13.7,21 13.5,21.1 13.2,21.2 13.6,21.3 	"/>
	<polygon class="st1" points="13.6,23.1 13.9,23.2 14.3,23.3 14.6,23.4 14.9,23.5 15.6,23.8 16.1,24.1 16.7,24.4 16.9,24.4 
		17.2,24.5 17.4,24.5 17.6,24.4 17.8,23.4 17.5,23.4 17.2,23.4 16.9,23.4 16.5,23.3 15.8,23.1 15.1,22.9 14.4,22.8 14.1,22.8 
		13.8,22.7 13.5,22.8 13.2,22.8 13,22.9 12.8,23.1 13.2,23.1 	"/>
	<polygon class="st1" points="13.4,24.9 13.8,24.9 14.1,25 14.5,25 14.9,25.1 15.5,25.3 16.1,25.5 16.7,25.6 16.9,25.7 17.2,25.7 
		17.4,25.7 17.6,25.6 17.6,24.5 17.4,24.6 17,24.6 16.7,24.6 16.3,24.6 15.6,24.6 14.9,24.5 14.2,24.5 13.9,24.5 13.6,24.5 
		13.3,24.6 13,24.7 12.8,24.8 12.6,25 13,24.9 	"/>
	<polygon class="st1" points="13.9,26.7 14.3,26.6 14.6,26.7 15,26.7 15.7,26.8 16.3,26.9 16.9,26.9 17.1,26.9 17.4,26.9 17.6,26.8 
		17.8,26.7 17.7,25.7 17.4,25.8 17.1,25.9 16.7,26 16.4,26 15.6,26.1 14.9,26.1 14.2,26.2 13.9,26.2 13.6,26.3 13.4,26.4 13.1,26.6 
		12.9,26.7 12.8,26.9 13.2,26.8 13.5,26.7 	"/>
	<polygon class="st1" points="14.7,28.3 15,28.3 15.4,28.2 16.1,28.2 16.7,28.2 17.3,28.2 17.6,28.1 17.8,28.1 18,28 18.2,27.8 
		17.9,26.8 17.6,27 17.3,27.1 17,27.2 16.6,27.3 15.9,27.5 15.2,27.6 14.6,27.8 14.2,27.9 14,28.1 13.7,28.2 13.5,28.4 13.4,28.6 
		13.2,28.8 13.6,28.6 13.9,28.5 14.3,28.4 	"/>
	<polygon class="st1" points="15.6,29.8 16,29.7 16.7,29.6 17.3,29.5 17.9,29.3 18.1,29.3 18.4,29.1 18.6,29 18.7,28.9 18.2,27.9 
		18,28.1 17.7,28.3 17.4,28.4 17.1,28.6 16.4,28.9 15.8,29.1 15.1,29.4 14.9,29.6 14.6,29.7 14.4,29.9 14.2,30.1 14.1,30.4 14,30.6 
		14.3,30.4 14.6,30.2 15,30 15.3,29.9 	"/>
	<polygon class="st1" points="16.9,31 17.5,30.8 18.1,30.6 18.6,30.4 18.9,30.3 19.1,30.1 19.3,30 19.4,29.8 18.8,28.9 18.6,29.1 
		18.4,29.4 18.1,29.6 17.8,29.8 17.2,30.2 16.5,30.5 15.9,30.9 15.7,31.1 15.4,31.3 15.3,31.5 15.1,31.8 15,32 15,32.3 15.3,32 
		15.6,31.7 15.9,31.5 16.2,31.3 16.5,31.2 	"/>
	<polygon class="st1" points="18.5,31.9 19.1,31.6 19.6,31.3 19.8,31.1 20,31 20.1,30.8 20.2,30.6 19.5,29.9 19.3,30.1 19.1,30.4 
		18.9,30.6 18.6,30.9 18.1,31.3 17.5,31.8 17,32.2 16.8,32.5 16.6,32.7 16.4,33 16.3,33.2 16.3,33.5 16.3,33.7 16.5,33.4 16.7,33.1 
		17,32.9 17.3,32.6 17.6,32.4 17.9,32.2 	"/>
	<polygon class="st1" points="20.2,32.4 20.6,32.1 20.8,31.9 21,31.7 21.1,31.5 21.1,31.3 20.3,30.6 20.2,30.9 20,31.2 19.8,31.5 
		19.6,31.8 19.1,32.3 18.7,32.9 18.2,33.4 18,33.7 17.9,33.9 17.8,34.2 17.7,34.5 17.7,34.7 17.7,35 17.9,34.6 18.1,34.3 18.4,34 
		18.6,33.7 18.9,33.5 19.1,33.2 19.7,32.8 	"/>
	<polygon class="st1" points="21.4,33.1 21.8,32.7 21.9,32.5 22.1,32.2 22.1,32 22.2,31.8 21.2,31.3 21.2,31.6 21.1,31.9 20.9,32.2 
		20.8,32.5 20.4,33.1 20,33.8 19.6,34.4 19.5,34.6 19.4,34.9 19.3,35.2 19.3,35.5 19.3,35.7 19.4,36 19.5,35.6 19.7,35.2 19.9,34.9 
		20,34.6 20.3,34.3 20.5,34.1 21,33.6 	"/>
	<polygon class="st1" points="23.1,33.1 23.2,32.9 23.3,32.6 23.3,32.4 23.3,32.1 22.3,31.8 22.3,32.1 22.2,32.4 22.1,32.8 22,33.1 
		21.7,33.8 21.4,34.4 21.1,35.1 21.1,35.4 21,35.7 21,36 21,36.2 21.1,36.5 21.2,36.7 21.2,36.3 21.4,35.9 21.5,35.6 21.6,35.3 
		21.8,34.9 22,34.6 22.4,34.1 22.7,33.6 	"/>
	<polygon class="st1" points="24.5,32.6 24.4,32.3 23.4,32.1 23.4,32.5 23.4,32.8 23.4,33.1 23.3,33.5 23.1,34.2 22.9,34.9 
		22.8,35.6 22.7,35.9 22.7,36.2 22.8,36.5 22.8,36.7 22.9,37 23.1,37.2 23.1,36.8 23.1,36.4 23.2,36 23.3,35.7 23.4,35.3 23.5,35 
		23.8,34.4 24.1,33.8 24.4,33.3 24.4,33 24.5,32.8 	"/>
	<polygon class="st1" points="25.6,32.3 24.5,32.3 24.6,32.6 24.6,32.9 24.6,33.3 24.6,33.6 24.6,34.4 24.5,35.1 24.5,35.8 
		24.5,36.1 24.5,36.4 24.6,36.7 24.7,36.9 24.8,37.1 25,37.3 24.9,36.9 24.9,36.6 24.9,36.2 25,35.8 25,35.5 25.1,35.1 25.3,34.5 
		25.5,33.9 25.6,33.3 25.7,33 25.7,32.8 25.7,32.5 	"/>
	<polygon class="st1" points="26.9,32.4 26.7,32.1 25.7,32.3 25.8,32.6 25.9,32.9 26,33.2 26,33.6 26.1,34.3 26.1,35 26.2,35.7 
		26.2,36 26.3,36.3 26.4,36.6 26.6,36.8 26.7,37 26.9,37.1 26.8,36.8 26.7,36.4 26.7,36.1 26.7,35.7 26.7,35.3 26.7,35 26.8,34.3 
		26.9,33.7 26.9,33.1 26.9,32.8 26.9,32.6 	"/>
	<polygon class="st1" points="28.5,36 28.4,35.6 28.3,35.3 28.3,34.9 28.2,34.6 28.2,33.9 28.2,33.3 28.2,32.7 28.1,32.4 28.1,32.2 
		28,32 27.8,31.8 26.8,32.1 27,32.4 27.1,32.7 27.2,33 27.4,33.3 27.5,34 27.7,34.7 27.9,35.4 27.9,35.7 28.1,36 28.2,36.2 
		28.4,36.4 28.6,36.6 28.9,36.7 28.6,36.4 	"/>
	<polygon class="st1" points="30.2,35.3 30,35 29.9,34.6 29.8,34.3 29.7,34 29.6,33.3 29.5,32.6 29.4,32.1 29.3,31.9 29.2,31.6 
		29,31.4 28.9,31.3 27.9,31.7 28.1,32 28.3,32.2 28.5,32.5 28.6,32.9 28.9,33.5 29.2,34.2 29.4,34.8 29.6,35.1 29.8,35.4 29.9,35.6 
		30.1,35.8 30.4,35.9 30.6,36 30.4,35.6 	"/>
	<polygon class="st1" points="31.8,34.4 31.5,34.1 31.4,33.8 31.2,33.4 31.1,33.1 30.8,32.5 30.6,31.9 30.4,31.3 30.3,31.1 
		30.1,30.9 30,30.7 29.8,30.6 28.9,31.2 29.2,31.4 29.4,31.6 29.6,31.9 29.8,32.2 30.2,32.8 30.6,33.4 30.9,34 31.1,34.3 31.3,34.5 
		31.6,34.7 31.8,34.8 32,34.9 32.3,34.9 32,34.7 	"/>
	<polygon class="st1" points="33.1,33.2 32.9,32.9 32.6,32.7 32.4,32.4 32.3,32.1 31.9,31.5 31.6,30.9 31.4,30.4 31.2,30.2 31,30 
		30.8,29.9 30.6,29.8 29.9,30.5 30.1,30.7 30.4,30.9 30.6,31.1 30.9,31.4 31.4,31.9 31.8,32.5 32.3,33 32.5,33.2 32.8,33.4 33,33.6 
		33.2,33.6 33.5,33.7 33.8,33.7 33.4,33.5 	"/>
	<polygon class="st1" points="34.3,31.9 34,31.6 33.8,31.4 33.5,31.1 33.3,30.9 32.9,30.3 32.5,29.8 32.1,29.4 31.9,29.2 31.7,29 
		31.5,28.9 31.3,28.8 30.7,29.7 31,29.8 31.2,30 31.5,30.1 31.8,30.4 32.4,30.8 32.9,31.3 33.4,31.8 33.7,31.9 34,32.1 34.2,32.2 
		34.5,32.3 34.8,32.3 35,32.2 34.7,32.1 	"/>
	<polygon class="st1" points="35.3,30.3 35,30.1 34.6,29.9 34.4,29.7 34.1,29.5 33.6,29 33.1,28.6 32.7,28.2 32.5,28 32.3,27.9 
		32.1,27.8 31.8,27.8 31.4,28.7 31.6,28.8 31.9,28.9 32.3,29.1 32.6,29.2 33.2,29.6 33.8,30 34.4,30.4 34.7,30.5 35,30.6 35.3,30.7 
		35.5,30.7 35.8,30.7 36,30.6 35.6,30.5 	"/>
	<polygon class="st1" points="36,28.6 35.6,28.5 35.3,28.4 35,28.2 34.7,28 34.1,27.6 33.6,27.3 33.1,26.9 32.9,26.8 32.6,26.7 
		32.4,26.7 32.2,26.7 31.9,27.7 32.1,27.7 32.5,27.8 32.8,27.9 33.1,28 33.8,28.3 34.5,28.6 35.1,28.8 35.4,28.9 35.7,29 36,29 
		36.3,29 36.5,28.9 36.8,28.8 36.4,28.7 	"/>
	<polygon class="st1" points="36.4,26.9 36.1,26.8 35.7,26.7 35.4,26.6 35.1,26.5 34.4,26.2 33.9,25.9 33.3,25.6 33.1,25.6 
		32.8,25.5 32.6,25.5 32.4,25.6 32.2,26.6 32.5,26.6 32.8,26.6 33.1,26.6 33.5,26.7 34.2,26.9 34.9,27.1 35.6,27.2 35.9,27.2 
		36.2,27.3 36.5,27.2 36.8,27.2 37,27.1 37.2,26.9 36.8,26.9 	"/>
	<polygon class="st1" points="36.6,25.1 36.2,25.1 35.9,25 35.5,25 35.1,24.9 34.5,24.7 33.9,24.5 33.3,24.4 33.1,24.3 32.8,24.3 
		32.6,24.3 32.4,24.4 32.4,25.5 32.6,25.4 33,25.4 33.3,25.4 33.7,25.4 34.4,25.4 35.1,25.5 35.8,25.5 36.1,25.5 36.4,25.5 
		36.7,25.4 37,25.3 37.2,25.2 37.4,25 37,25.1 	"/>
	<polygon class="st1" points="36.1,23.3 35.7,23.4 35.4,23.3 35,23.3 34.3,23.2 33.7,23.1 33.1,23.1 32.9,23.1 32.6,23.1 32.4,23.2 
		32.2,23.3 32.3,24.3 32.6,24.2 32.9,24.1 33.3,24 33.6,24 34.4,23.9 35.1,23.9 35.8,23.8 36.1,23.8 36.4,23.7 36.6,23.6 36.9,23.4 
		37.1,23.3 37.2,23.1 36.9,23.2 36.5,23.3 	"/>
	<polygon class="st1" points="35.3,21.7 35,21.7 34.6,21.8 33.9,21.8 33.3,21.8 32.7,21.8 32.4,21.9 32.2,21.9 32,22 31.8,22.2 
		32.1,23.2 32.4,23 32.7,22.9 33,22.8 33.4,22.7 34.1,22.5 34.8,22.4 35.4,22.2 35.8,22.1 36,21.9 36.3,21.8 36.5,21.6 36.6,21.4 
		36.8,21.2 36.4,21.4 36.1,21.5 35.7,21.6 	"/>
	<polygon class="st1" points="34.4,20.2 34,20.3 33.3,20.4 32.7,20.5 32.1,20.7 31.9,20.7 31.6,20.9 31.4,21 31.3,21.1 31.8,22.1 
		32,21.9 32.3,21.7 32.6,21.6 32.9,21.4 33.6,21.1 34.2,20.9 34.9,20.6 35.2,20.4 35.4,20.3 35.6,20.1 35.8,19.9 35.9,19.6 36,19.4 
		35.7,19.6 35.4,19.8 35,20 34.7,20.1 	"/>
	<polygon class="st1" points="33.1,19 32.5,19.2 31.9,19.4 31.4,19.6 31.1,19.7 30.9,19.9 30.7,20 30.6,20.2 31.2,21.1 31.4,20.9 
		31.7,20.6 31.9,20.4 32.2,20.2 32.9,19.8 33.5,19.5 34.1,19.1 34.3,18.9 34.6,18.7 34.7,18.5 34.9,18.2 35,18 35,17.7 34.7,18 
		34.4,18.3 34.1,18.5 33.8,18.7 33.5,18.8 	"/>
	<polygon class="st1" points="31.5,18.1 30.9,18.4 30.4,18.7 30.2,18.9 30,19 29.9,19.2 29.8,19.4 30.5,20.1 30.7,19.9 30.9,19.6 
		31.1,19.4 31.4,19.1 31.9,18.7 32.5,18.2 33,17.8 33.2,17.5 33.4,17.3 33.6,17 33.7,16.8 33.7,16.5 33.7,16.3 33.5,16.6 33.3,16.9 
		33,17.1 32.7,17.4 32.4,17.6 32.1,17.8 	"/>
	<polygon class="st1" points="29.8,17.6 29.4,17.9 29.2,18.1 29,18.3 28.9,18.5 28.9,18.7 29.7,19.4 29.8,19.1 30,18.8 30.2,18.5 
		30.4,18.2 30.9,17.7 31.4,17.1 31.8,16.6 32,16.3 32.1,16.1 32.2,15.8 32.3,15.5 32.3,15.3 32.3,15 32.1,15.4 31.9,15.7 31.6,16 
		31.4,16.3 31.1,16.5 30.9,16.8 30.4,17.2 	"/>
	<polygon class="st1" points="28.6,16.9 28.2,17.3 28.1,17.5 27.9,17.8 27.9,18 27.8,18.2 28.8,18.7 28.8,18.4 28.9,18.1 29.1,17.8 
		29.2,17.5 29.6,16.9 30,16.2 30.4,15.6 30.5,15.4 30.6,15.1 30.7,14.8 30.7,14.5 30.7,14.3 30.6,14 30.5,14.4 30.4,14.8 30.2,15.1 
		30,15.4 29.7,15.7 29.5,15.9 29,16.4 	"/>
	<polygon class="st1" points="27,16.9 26.9,17.1 26.8,17.4 26.7,17.6 26.7,17.9 27.7,18.2 27.7,17.9 27.8,17.6 27.9,17.2 28,16.9 
		28.3,16.2 28.6,15.6 28.9,14.9 28.9,14.6 29,14.3 29,14 29,13.8 28.9,13.5 28.8,13.3 28.8,13.7 28.7,14 28.5,14.4 28.4,14.7 
		28.2,15 28,15.4 27.6,15.9 27.3,16.4 	"/>
	<polygon class="st1" points="25.5,17.4 25.6,17.7 26.6,17.9 26.6,17.5 26.6,17.2 26.6,16.9 26.7,16.5 26.9,15.8 27.1,15.1 
		27.2,14.4 27.3,14.1 27.3,13.8 27.3,13.5 27.2,13.3 27.1,13 26.9,12.8 26.9,13.2 26.9,13.6 26.8,14 26.7,14.3 26.6,14.7 26.5,15 
		26.2,15.6 25.9,16.2 25.7,16.7 25.6,17 25.5,17.2 	"/>
</g>
<path class="st2" d="M25,2c12.7,0,23,10.3,23,23S37.7,48,25,48S2,37.7,2,25S12.3,2,25,2 M25,0C11.2,0,0,11.2,0,25s11.2,25,25,25
	s25-11.2,25-25S38.8,0,25,0L25,0z"/>
</svg>
