<?xml version="1.0" encoding="utf-8"?>
<!-- Generator: Adobe Illustrator 21.0.2, SVG Export Plug-In . SVG Version: 6.00 Build 0)  -->
<svg version="1.1" id="Layer_1" xmlns="http://www.w3.org/2000/svg" xmlns:xlink="http://www.w3.org/1999/xlink" x="0px" y="0px"
	 width="50px" height="50px" viewBox="0 0 50 50" style="enable-background:new 0 0 50 50;" xml:space="preserve">
<style type="text/css">
	.st0{fill:#FF0000;}
	.st1{fill:#FFFFFF;}
	.st2{fill:#DDDDDD;}
</style>
<g>
	<path class="st0" d="M25,1C11.7,1,1,11.7,1,25s10.7,24,24,24s24-10.7,24-24S38.3,1,25,1z M29.8,32.1l-0.5,0.8l-0.5,0.8l-0.6,0.7
		l-0.6,0.7l-0.6,0.6l-0.7,0.6l-0.7,0.6l-0.8,0.5l-0.8,0.4L23,38.2L22,38.6l-0.4,0.1l-0.5,0.1l-0.5,0.1L20.2,39l-0.5,0.1l-0.5,0
		l-0.5,0l-0.5,0l-0.7,0l-0.7-0.1L16.2,39l-0.6-0.1L15,38.7l-0.6-0.2l-0.6-0.2l-0.6-0.2l-0.6-0.3L12,37.5l-0.6-0.3l-0.5-0.4l-0.5-0.4
		l-0.5-0.4l-0.5-0.4L9,35.3l-0.4-0.5l-0.4-0.5l-0.4-0.5l-0.4-0.5L7,32.8l-0.3-0.6l-0.3-0.6l-0.3-0.6l-0.2-0.6l-0.2-0.6l-0.2-0.6
		l-0.1-0.6l-0.1-0.6l-0.1-0.7l-0.1-0.7v-0.7v-0.7l0.1-0.7l0.1-0.6l0.1-0.6l0.1-0.6L5.7,22l0.2-0.6l0.2-0.6l0.3-0.6l0.3-0.6L7,19
		l0.4-0.6L7.7,18l0.4-0.5L8.5,17L9,16.5l0.5-0.4l0.5-0.4l0.5-0.4l0.5-0.4l0.5-0.4l0.6-0.3l0.6-0.3l0.6-0.3l0.6-0.2l0.6-0.2l0.6-0.2
		l0.6-0.1l0.6-0.1l0.6-0.1l0.7-0.1h0.7l0.9,0l0.9,0.1L21,13l0.9,0.2l0.9,0.3l0.8,0.4l0.8,0.4l0.8,0.4l0.7,0.5l0.7,0.6l0.6,0.6
		l0.6,0.6l0.6,0.7l0.5,0.7l0.5,0.7l0.4,0.8l-0.4-0.5l-0.4-0.5l-0.4-0.5l-0.4-0.4l-0.5-0.4l-0.5-0.4l-0.5-0.4l-0.6-0.3l-0.5-0.3
		L25.1,16l-0.6-0.2l-0.6-0.2l-0.6-0.1l-0.6-0.1L22,15.3l-0.7,0l-0.5,0l-0.5,0l-0.5,0.1l-0.5,0.1l-0.5,0.1l-0.5,0.1l-0.5,0.1
		l-0.5,0.2l-0.4,0.2l-0.4,0.2L16,16.8L15.5,17l-0.4,0.3l-0.4,0.3L14.4,18L14,18.3l-0.4,0.4l-0.3,0.4L13,19.5l-0.3,0.4l-0.3,0.4
		l-0.3,0.4L12,21.2l-0.2,0.5l-0.2,0.5l-0.2,0.5l-0.1,0.5l-0.1,0.5l-0.1,0.5L11,24.7l0,0.6v0.5v0.6l0,0.5l0.1,0.5l0.1,0.5l0.1,0.5
		l0.1,0.5l0.2,0.5l0.2,0.5l0.2,0.5l0.2,0.5l0.3,0.4l0.3,0.4l0.3,0.4l0.3,0.4l0.3,0.4l0.4,0.4l0.4,0.4l0.4,0.3l0.4,0.3l0.4,0.3
		l0.4,0.3l0.4,0.3l0.4,0.2l0.4,0.2l0.5,0.2l0.5,0.2l0.5,0.1l0.5,0.1l0.5,0.1l0.5,0.1l0.5,0.1h0.5l0.7,0l0.7-0.1l0.7-0.1L24,36
		l0.6-0.2l0.6-0.3l0.6-0.3l0.6-0.3l0.6-0.4l0.5-0.4l0.5-0.4l0.5-0.4l0.4-0.5l0.4-0.5l0.4-0.5l0.4-0.6L29.8,32.1z M36.3,28.2
		l-2.8,3.9l0-4.8l-4.6-1.5l4.6-1.5l0-4.8l2.9,3.9l4.6-1.5L38,25.8l2.9,3.9L36.3,28.2z"/>
	<polygon class="st1" points="40.9,21.9 36.3,23.4 33.4,19.5 33.5,24.3 28.9,25.9 33.5,27.3 33.5,32.2 36.3,28.2 40.9,29.7 38,25.8 
			"/>
	<polygon class="st1" points="29.4,32.4 29,32.9 28.6,33.4 28.1,33.8 27.6,34.2 27,34.6 26.5,35 25.9,35.3 25.3,35.6 24.7,35.8 
		24,36 23.4,36.2 22.7,36.3 22,36.4 21.3,36.4 20.8,36.4 20.3,36.3 19.8,36.3 19.2,36.2 18.7,36.1 18.3,35.9 17.8,35.7 17.3,35.6 
		16.8,35.4 16.4,35.1 16,34.9 15.5,34.6 15.1,34.3 14.8,34 14.4,33.7 14,33.3 13.7,32.9 13.3,32.5 13,32.1 12.8,31.7 12.5,31.3 
		12.2,30.9 12,30.4 11.8,29.9 11.6,29.5 11.4,29 11.3,28.5 11.2,28 11.1,27.4 11,26.9 11,26.4 11,25.8 11,25.3 11,24.7 11.1,24.2 
		11.2,23.7 11.3,23.2 11.4,22.7 11.6,22.2 11.8,21.7 12,21.2 12.2,20.8 12.5,20.3 12.8,19.9 13,19.5 13.3,19.1 13.7,18.7 14,18.3 
		14.4,18 14.8,17.7 15.1,17.3 15.5,17 16,16.8 16.4,16.5 16.8,16.3 17.3,16.1 17.8,15.9 18.3,15.7 18.7,15.6 19.2,15.5 19.8,15.4 
		20.3,15.3 20.8,15.3 21.3,15.2 22,15.3 22.6,15.3 23.3,15.4 23.9,15.6 24.5,15.8 25.1,16 25.7,16.2 26.2,16.5 26.7,16.8 27.2,17.2 
		27.7,17.5 28.2,17.9 28.7,18.4 29.1,18.8 29.5,19.3 29.8,19.8 29.4,19 28.9,18.3 28.4,17.6 27.8,16.9 27.2,16.3 26.5,15.7 
		25.8,15.1 25.1,14.6 24.3,14.2 23.5,13.8 22.7,13.5 21.9,13.2 21,13 20.1,12.8 19.2,12.7 18.2,12.7 17.5,12.7 16.9,12.7 16.2,12.8 
		15.6,12.9 15,13.1 14.3,13.3 13.7,13.5 13.1,13.7 12.6,14 12,14.3 11.4,14.6 10.9,14.9 10.4,15.3 9.9,15.7 9.4,16.1 9,16.5 8.5,17 
		8.1,17.5 7.7,18 7.4,18.5 7,19 6.7,19.6 6.4,20.2 6.2,20.8 5.9,21.3 5.7,22 5.6,22.6 5.4,23.3 5.3,23.9 5.2,24.5 5.1,25.2 
		5.1,25.9 5.1,26.6 5.2,27.2 5.3,27.9 5.4,28.6 5.6,29.2 5.7,29.8 5.9,30.5 6.2,31.1 6.4,31.7 6.7,32.2 7,32.8 7.4,33.3 7.7,33.8 
		8.1,34.3 8.5,34.8 9,35.3 9.4,35.7 9.9,36.1 10.4,36.5 10.9,36.9 11.4,37.2 12,37.5 12.6,37.8 13.1,38.1 13.7,38.3 14.3,38.5 
		15,38.7 15.6,38.9 16.2,39 16.9,39.1 17.5,39.1 18.2,39.2 18.7,39.1 19.2,39.1 19.7,39.1 20.2,39 20.7,38.9 21.1,38.8 21.6,38.7 
		22,38.6 23,38.2 23.8,37.9 24.6,37.4 25.5,36.9 26.2,36.4 26.9,35.8 27.6,35.2 28.2,34.5 28.8,33.7 29.3,32.9 29.8,32.1 30.2,31.2 
		29.8,31.8 	"/>
</g>
<path class="st2" d="M25,2c12.7,0,23,10.3,23,23S37.7,48,25,48S2,37.7,2,25S12.3,2,25,2 M25,0C11.2,0,0,11.2,0,25s11.2,25,25,25
	s25-11.2,25-25S38.8,0,25,0L25,0z"/>
</svg>
