<?xml version="1.0" encoding="utf-8"?>
<!-- Generator: Adobe Illustrator 21.0.2, SVG Export Plug-In . SVG Version: 6.00 Build 0)  -->
<svg version="1.1" id="Layer_1" xmlns="http://www.w3.org/2000/svg" xmlns:xlink="http://www.w3.org/1999/xlink" x="0px" y="0px"
	 width="750px" height="1000px" viewBox="0 0 750 1000" style="enable-background:new 0 0 750 1000;" xml:space="preserve">
<style type="text/css">
	.st0{fill:#F5F5F5;}
	.st1{fill:#E2E2E2;}
</style>
<path class="st0" d="M334.5,107.4C315,88.1,288.9,77.5,261,77.5c-54.1,0-98.6,41-103.5,93.1h-12.7c-36.1,0-52.9,28.8-52.9,48.3
	c0,13.7,6.9,31.1,21.8,41c-13.6,5.6-26.1,14.1-36.8,25.3c-20.4,21.2-31.6,48.8-31.6,77.9v9.7C21,389.2,5,416.9,5,448.3
	c0,24.1,9.4,46,24.8,62.3l0,2.8l0.2,0c1.5,32.2,14.9,63.9,37.4,87.9c17.2,18.4,38.2,31,60.9,37c-12.7,9.4-20.8,23.7-20.8,39.6
	c0,28.2,25.5,51.2,56.8,51.2h29.3c-5.6,7.8-8.6,18.3-8.6,31c0,13.3,5.1,25.7,14.3,35.1c9.3,9.4,21.8,14.6,35.2,14.6h66.9v-0.1h1.3
	c13.4,0,25.6-5.7,34.3-16.1c7.9-9.4,12.5-22.2,12.5-35h-15.5c0,17.5-11.7,35.6-31.3,35.6h-69.2v0.1c-18.5-0.5-32.9-15.3-32.9-34.1
	c0-20.6,8.9-31,26.4-31v-15.5h-62.6c-22.8,0-41.3-16-41.3-35.7s18.5-35.7,41.3-35.7h106.3c28.1,0,50.9-23.8,50.9-53
	c0-29-22.8-52.5-50.9-52.5v15.5c19.5,0,35.4,16.6,35.4,37c0,20.7-15.9,37.5-35.4,37.5h-112c-29.8,0-58.2-12.8-79.9-36
	c-17.1-18.3-28.4-41.7-32-66c14.6,9.5,32.1,15.1,50.8,15.1h89v-15.5h-89c-42.4,0-77-34.1-77-76s34.5-76,77-76h26.8v-15.5H97.5
	c-13,0-25.4,2.7-36.6,7.5V363c0-50.1,39.7-92.7,87.6-95.3h106c45.1,0,54.6,22.5,54.6,41.4c0,13-4,23-11.9,29.7
	c-9.1,7.8-23.4,11.7-42.7,11.7V366c61,0,70.1-35.7,70.1-57c0-17.2-6.1-31.5-17.8-41.3c-12.2-10.4-29.8-15.6-52.3-15.6h-30.4V252
	h-70.9c-1.7,0-3.4,0-5.1,0.1H141c-25.3,0-33.5-22.4-33.5-33.2c0-10.3,9.4-32.8,37.4-32.8h117.8v-15.5h-89.6
	C177.9,127,215.5,93,261,93c23.7,0,46,9,62.6,25.5c16.6,16.4,25.8,38.3,25.8,61.6v272.3c-10.4-11.1-25.2-18.1-41.6-18.1h-37.6h-55.8
	h-24.8c-19.7,0-35.7-16.1-35.7-35.9c0-19.2,16.4-35.5,35.7-35.5v-15.5c-13.6,0-26.4,5.3-36.2,15c-9.7,9.7-15.1,22.4-15.1,35.9
	c0,28.3,23,51.4,51.3,51.4h24.8h55.8h37.6c22.9,0,41.6,18.8,41.6,41.9v266.8v90h15.5V491.7V180.1
	C364.9,152.5,354.1,126.7,334.5,107.4z M157.7,627c-4.8,0.5-9.5,1.6-13.9,3.1C148.2,628.6,152.9,627.5,157.7,627z M746.6,448.3
	c0,25.7-10.7,48.9-27.9,65.5c-0.1,34.3-13.3,66.4-37.3,90.6c-14.3,14.4-31.5,25-50.2,31.3c13.5,9.2,22.4,24.7,22.4,42.2
	c0,28.2-23.1,51.2-51.6,51.2h-27.1c8.4,8.9,13.6,20.9,13.6,34.1c0,27.4-22.1,49.6-49.3,49.6h-67v-15.5h67
	c18.6,0,33.8-15.3,33.8-34.1S557.6,729,539,729h-36v-15.5h36h62.9c19.9,0,36.1-16,36.1-35.7s-16.2-35.7-36.1-35.7h-10v0
	c-0.4,0-0.8,0-1.1,0h-13.3h-99h-3.3V642c-26.8-1.8-48.1-24.8-48.1-52.8c0-29,23.1-52.5,51.4-52.5v15.5c-19.8,0-35.9,16.6-35.9,37
	c0,20.7,16.1,37.5,35.9,37.5h99h13.3c30.1,0,58.3-11.8,79.5-33.1c18.1-18.3,29.3-41.8,32.1-67.2c-14,8.5-30.5,13.5-48.1,13.5h-89.2
	v-15.5h89.2c42.3,0,76.7-34.1,76.7-76s-34.4-76-76.7-76h-27.2v-15.5h27.2c11.7,0,23,2.2,33.3,6.2c0-51.3-41.2-93-91.8-93h-71.1v-0.6
	h-30.3c-45.5,0-55.1,23.1-55.1,42.4h-15.5c0-17.4,6.2-32,17.9-42c12.3-10.6,30-15.9,52.7-15.9h115.6c25.8,0,34.1-23,34.1-34.1
	c0-10.5-9.6-33.6-38-33.6h-120v-15.5h89.2c-2.1-19.7-10.8-37.9-24.8-52.1C534.2,102.1,512.4,93,489.3,93c-23.4,0-45.3,9-61.7,25.5
	c-16.4,16.4-25.4,38.4-25.4,61.8v271.8c10.2-11,24.6-17.8,40.5-17.8h35.5H534h27.1c20.2,0,36.5-16.1,36.5-35.9
	c0-19.6-16.4-35.5-36.5-35.5v-15.5c28.7,0,52.1,22.9,52.1,51c0,28.3-23.4,51.4-52.1,51.4H534h-55.8h-35.5
	c-22.3,0-40.5,18.8-40.5,41.9v431.3h-15.5V491.7V180.3c0-27.5,10.6-53.4,30-72.7c19.3-19.4,45.1-30,72.6-30c27.3,0,53,10.7,72.3,30
	c17,17.1,27.3,39.2,29.5,63h15.1c36.5,0,53.6,29.3,53.6,49.1c0,14.3-7.5,32.7-23.6,42.6c39.2,16.2,67,55.2,67,100.7v7.6
	C729.2,386.8,746.6,415.6,746.6,448.3z"/>
<path class="st1" d="M202.7,152.1v-20h6l3.6,13.6l3.6-13.6h6.1v20h-3.7v-15.7l-4,15.7h-3.9l-4-15.7v15.7H202.7z M242.5,152.1h-4.4
	l-1.7-4.5h-8l-1.6,4.5h-4.3l7.8-20h4.3L242.5,152.1z M235.1,144.2l-2.8-7.4l-2.7,7.4H235.1z M243.2,152.1v-20h8.5
	c2.1,0,3.7,0.2,4.7,0.5c1,0.4,1.7,1,2.3,1.9s0.9,2,0.9,3.1c0,1.5-0.4,2.7-1.3,3.7c-0.9,1-2.2,1.6-4,1.8c0.9,0.5,1.6,1.1,2.2,1.7
	c0.6,0.6,1.3,1.7,2.3,3.2l2.4,3.9h-4.8l-2.9-4.3c-1-1.6-1.7-2.5-2.1-2.9c-0.4-0.4-0.8-0.7-1.2-0.8c-0.4-0.1-1.1-0.2-2-0.2h-0.8v8.3
	H243.2z M247.2,140.5h3c1.9,0,3.1-0.1,3.6-0.2c0.5-0.2,0.9-0.4,1.1-0.8c0.3-0.4,0.4-0.9,0.4-1.5c0-0.7-0.2-1.2-0.5-1.6
	c-0.4-0.4-0.9-0.7-1.5-0.8c-0.3,0-1.3-0.1-2.9-0.1h-3.1V140.5z M261.8,152.1v-20h4v8.9l8.2-8.9h5.4l-7.5,7.8l7.9,12.2h-5.2l-5.5-9.4
	l-3.3,3.3v6H261.8z M280.4,152.1v-20h14.8v3.4h-10.8v4.4h10v3.4h-10v5.4h11.2v3.4H280.4z M302,152.1v-16.6h-5.9v-3.4h15.9v3.4H306
	v16.6H302z M173.3,686.2v-20h6.5c2.5,0,4.1,0.1,4.8,0.3c1.1,0.3,2.1,1,2.9,2c0.8,1,1.2,2.3,1.2,3.9c0,1.2-0.2,2.3-0.7,3.1
	c-0.4,0.8-1,1.5-1.7,2c-0.7,0.5-1.4,0.8-2.1,0.9c-1,0.2-2.4,0.3-4.2,0.3h-2.6v7.5H173.3z M177.4,669.6v5.7h2.2
	c1.6,0,2.7-0.1,3.2-0.3s1-0.5,1.3-1c0.3-0.4,0.5-1,0.5-1.6c0-0.7-0.2-1.3-0.6-1.8s-1-0.8-1.6-0.9c-0.5-0.1-1.4-0.1-2.9-0.1H177.4z
	 M191.2,676.4c0-2,0.3-3.7,0.9-5.1c0.5-1,1.1-1.9,1.9-2.7c0.8-0.8,1.6-1.4,2.6-1.8c1.2-0.5,2.7-0.8,4.3-0.8c2.9,0,5.3,0.9,7.1,2.7
	c1.8,1.8,2.7,4.4,2.7,7.6c0,3.2-0.9,5.8-2.6,7.6c-1.8,1.8-4.1,2.7-7,2.7c-3,0-5.3-0.9-7.1-2.7S191.2,679.6,191.2,676.4z
	 M195.3,676.2c0,2.3,0.5,4,1.6,5.1c1,1.2,2.4,1.8,4,1.8s2.9-0.6,4-1.7c1-1.2,1.5-2.9,1.5-5.2c0-2.3-0.5-4-1.5-5.1s-2.3-1.7-4-1.7
	c-1.7,0-3,0.6-4,1.7S195.3,673.9,195.3,676.2z M213.8,686.2v-19.8h4v16.5h10v3.4H213.8z M230.6,686.2v-20h4v20H230.6z M243,686.2
	v-16.6h-5.9v-3.4H253v3.4H247v16.6H243z M255.4,686.2v-20h4v20H255.4z M276.1,678.9l3.9,1.2c-0.6,2.2-1.6,3.8-3,4.9
	c-1.4,1.1-3.2,1.6-5.3,1.6c-2.7,0-4.8-0.9-6.5-2.7s-2.6-4.3-2.6-7.4c0-3.3,0.9-5.9,2.6-7.8c1.7-1.8,4-2.8,6.8-2.8
	c2.4,0,4.4,0.7,6,2.2c0.9,0.9,1.6,2.1,2,3.7l-4,1c-0.2-1-0.7-1.9-1.5-2.5c-0.8-0.6-1.7-0.9-2.7-0.9c-1.5,0-2.7,0.5-3.6,1.6
	s-1.4,2.8-1.4,5.2c0,2.5,0.5,4.3,1.4,5.4c0.9,1.1,2.1,1.6,3.5,1.6c1.1,0,2-0.3,2.8-1C275.2,681.4,275.8,680.4,276.1,678.9z
	 M282.5,679.7l3.9-0.4c0.2,1.3,0.7,2.3,1.4,2.9s1.7,0.9,2.9,0.9c1.3,0,2.3-0.3,2.9-0.8c0.7-0.5,1-1.2,1-1.9c0-0.5-0.1-0.9-0.4-1.2
	c-0.3-0.3-0.8-0.6-1.5-0.9c-0.5-0.2-1.5-0.5-3.2-0.9c-2.2-0.5-3.7-1.2-4.6-2c-1.2-1.1-1.8-2.4-1.8-4c0-1,0.3-2,0.9-2.9
	c0.6-0.9,1.4-1.6,2.5-2c1.1-0.5,2.4-0.7,3.9-0.7c2.5,0,4.4,0.6,5.7,1.7c1.3,1.1,1.9,2.6,2,4.4l-4,0.2c-0.2-1-0.5-1.8-1.1-2.2
	c-0.6-0.5-1.4-0.7-2.6-0.7c-1.2,0-2.1,0.2-2.8,0.7c-0.4,0.3-0.6,0.7-0.6,1.2c0,0.5,0.2,0.9,0.6,1.2c0.5,0.4,1.7,0.9,3.7,1.3
	s3.4,0.9,4.4,1.4c0.9,0.5,1.7,1.2,2.2,2c0.5,0.9,0.8,1.9,0.8,3.2c0,1.1-0.3,2.2-1,3.2c-0.6,1-1.5,1.7-2.7,2.2s-2.6,0.7-4.3,0.7
	c-2.5,0-4.5-0.6-5.8-1.8C283.5,683.7,282.7,682,282.5,679.7z M89.8,492.3l3.9-0.4c0.2,1.3,0.7,2.3,1.4,2.9c0.7,0.6,1.7,0.9,2.9,0.9
	c1.3,0,2.3-0.3,2.9-0.8c0.7-0.5,1-1.2,1-1.9c0-0.5-0.1-0.9-0.4-1.2c-0.3-0.3-0.8-0.6-1.5-0.9c-0.5-0.2-1.5-0.5-3.2-0.9
	c-2.2-0.5-3.7-1.2-4.6-2c-1.2-1.1-1.8-2.4-1.8-4c0-1,0.3-2,0.9-2.9s1.4-1.6,2.5-2c1.1-0.5,2.4-0.7,3.9-0.7c2.5,0,4.4,0.5,5.7,1.6
	c1.3,1.1,1.9,2.6,2,4.4l-4,0.2c-0.2-1-0.5-1.8-1.1-2.2c-0.6-0.4-1.4-0.7-2.6-0.7c-1.2,0-2.1,0.2-2.8,0.7c-0.4,0.3-0.6,0.7-0.6,1.2
	c0,0.5,0.2,0.9,0.6,1.2c0.5,0.4,1.7,0.9,3.7,1.3c2,0.5,3.4,0.9,4.4,1.4c0.9,0.5,1.7,1.2,2.2,2s0.8,1.9,0.8,3.2c0,1.1-0.3,2.2-1,3.2
	s-1.5,1.7-2.7,2.2s-2.6,0.7-4.3,0.7c-2.5,0-4.5-0.6-5.8-1.8C90.9,496.2,90.1,494.5,89.8,492.3z M109.5,498.8v-20h14.8v3.4h-10.8v4.4
	h10v3.4h-10v5.4h11.2v3.4H109.5z M146.1,498.8h-4.4l-1.7-4.5h-8l-1.6,4.5h-4.3l7.8-20h4.3L146.1,498.8z M138.7,490.9l-2.8-7.4
	l-2.7,7.4H138.7z M147.3,492.3l3.9-0.4c0.2,1.3,0.7,2.3,1.4,2.9c0.7,0.6,1.7,0.9,2.9,0.9c1.3,0,2.3-0.3,2.9-0.8c0.7-0.5,1-1.2,1-1.9
	c0-0.5-0.1-0.9-0.4-1.2c-0.3-0.3-0.8-0.6-1.5-0.9c-0.5-0.2-1.5-0.5-3.2-0.9c-2.2-0.5-3.7-1.2-4.6-2c-1.2-1.1-1.8-2.4-1.8-4
	c0-1,0.3-2,0.9-2.9s1.4-1.6,2.5-2c1.1-0.5,2.4-0.7,3.9-0.7c2.5,0,4.4,0.5,5.7,1.6c1.3,1.1,1.9,2.6,2,4.4l-4,0.2
	c-0.2-1-0.5-1.8-1.1-2.2c-0.6-0.4-1.4-0.7-2.6-0.7c-1.2,0-2.1,0.2-2.8,0.7c-0.4,0.3-0.6,0.7-0.6,1.2c0,0.5,0.2,0.9,0.6,1.2
	c0.5,0.4,1.7,0.9,3.7,1.3c2,0.5,3.4,0.9,4.4,1.4c0.9,0.5,1.7,1.2,2.2,2s0.8,1.9,0.8,3.2c0,1.1-0.3,2.2-1,3.2s-1.5,1.7-2.7,2.2
	s-2.6,0.7-4.3,0.7c-2.5,0-4.5-0.6-5.8-1.8C148.3,496.2,147.5,494.5,147.3,492.3z M166.1,488.9c0-2,0.3-3.7,0.9-5.1
	c0.5-1,1.1-1.9,1.9-2.7c0.8-0.8,1.6-1.4,2.6-1.8c1.2-0.5,2.7-0.8,4.3-0.8c2.9,0,5.3,0.9,7.1,2.7c1.8,1.8,2.7,4.4,2.7,7.6
	c0,3.2-0.9,5.8-2.6,7.6c-1.8,1.8-4.1,2.7-7,2.7c-3,0-5.3-0.9-7.1-2.7C167,494.6,166.1,492.1,166.1,488.9z M170.2,488.8
	c0,2.3,0.5,4,1.6,5.1c1,1.2,2.4,1.8,4,1.8s2.9-0.6,4-1.7c1-1.2,1.5-2.9,1.5-5.2c0-2.3-0.5-4-1.5-5.1s-2.3-1.7-4-1.7
	c-1.7,0-3,0.6-4,1.7S170.2,486.5,170.2,488.8z M188.7,498.8v-20h3.9l8.2,13.3v-13.3h3.7v20h-4l-8.1-13v13H188.7z M226.8,498.8h-4.4
	l-1.7-4.5h-8l-1.6,4.5h-4.3l7.8-20h4.3L226.8,498.8z M219.4,490.9l-2.8-7.4l-2.7,7.4H219.4z M229.1,498.8v-19.8h4v16.5h10v3.4H229.1
	z M245.9,498.8v-20h4v20H245.9z M258.3,498.8v-16.6h-5.9v-3.4h15.9v3.4h-5.9v16.6H258.3z M276.1,498.8v-8.4l-7.3-11.6h4.7l4.7,7.9
	l4.6-7.9h4.6l-7.3,11.6v8.4H276.1z M444.5,390.2h8c1.6,0,2.8,0.1,3.5,0.2s1.5,0.4,2.1,0.8s1.1,1,1.5,1.7c0.4,0.7,0.6,1.5,0.6,2.3
	c0,0.9-0.3,1.8-0.8,2.6c-0.5,0.8-1.2,1.4-2.1,1.8c1.2,0.4,2.2,1,2.8,1.8s1,1.9,1,3c0,0.9-0.2,1.8-0.6,2.7s-1,1.5-1.7,2.1
	c-0.7,0.5-1.6,0.8-2.7,0.9c-0.7,0.1-2.3,0.1-4.9,0.1h-6.8V390.2z M448.6,393.5v4.6h2.6c1.6,0,2.5,0,2.9-0.1c0.7-0.1,1.2-0.3,1.6-0.7
	c0.4-0.4,0.6-0.9,0.6-1.6c0-0.6-0.2-1.1-0.5-1.5s-0.8-0.6-1.5-0.7c-0.4,0-1.5-0.1-3.5-0.1H448.6z M448.6,401.4v5.3h3.7
	c1.5,0,2.4,0,2.8-0.1c0.6-0.1,1.1-0.4,1.5-0.8c0.4-0.4,0.6-1,0.6-1.7c0-0.6-0.1-1.1-0.4-1.5c-0.3-0.4-0.7-0.7-1.3-0.9
	c-0.6-0.2-1.7-0.3-3.6-0.3H448.6z M463.1,390.2h4V401c0,1.7,0,2.8,0.2,3.3c0.2,0.8,0.6,1.5,1.2,2c0.6,0.5,1.5,0.7,2.7,0.7
	c1.1,0,2-0.2,2.6-0.7c0.6-0.5,0.9-1,1-1.7s0.2-1.8,0.2-3.4v-11.1h4v10.5c0,2.4-0.1,4.1-0.3,5.1c-0.2,1-0.6,1.8-1.2,2.5
	c-0.6,0.7-1.4,1.2-2.4,1.6c-1,0.4-2.3,0.6-3.8,0.6c-1.9,0-3.4-0.2-4.3-0.7s-1.8-1-2.3-1.7c-0.6-0.7-1-1.4-1.1-2.2
	c-0.3-1.1-0.4-2.8-0.4-5.1V390.2z M481.8,390.2h7.4c1.7,0,2.9,0.1,3.8,0.4c1.2,0.3,2.2,1,3,1.8c0.8,0.9,1.5,2,1.9,3.2
	c0.4,1.3,0.7,2.9,0.7,4.7c0,1.6-0.2,3.1-0.6,4.3c-0.5,1.5-1.2,2.6-2.1,3.5c-0.7,0.7-1.6,1.2-2.8,1.6c-0.9,0.3-2.1,0.4-3.6,0.4h-7.6
	V390.2z M485.8,393.5v13.2h3c1.1,0,1.9-0.1,2.4-0.2c0.7-0.2,1.2-0.4,1.6-0.8s0.8-1,1.1-1.9c0.3-0.9,0.4-2.1,0.4-3.7
	c0-1.5-0.1-2.7-0.4-3.6c-0.3-0.8-0.7-1.5-1.1-1.9c-0.5-0.5-1.1-0.8-1.9-0.9c-0.6-0.1-1.7-0.2-3.3-0.2H485.8z M509.7,402.8v-3.4h8.7
	v8c-0.8,0.8-2.1,1.5-3.7,2.2s-3.2,0.9-4.9,0.9c-2.1,0-3.9-0.4-5.5-1.3c-1.6-0.9-2.7-2.1-3.5-3.8c-0.8-1.6-1.2-3.4-1.2-5.3
	c0-2.1,0.4-3.9,1.3-5.5c0.9-1.6,2.1-2.9,3.8-3.7c1.3-0.7,2.9-1,4.8-1c2.5,0,4.4,0.5,5.8,1.6c1.4,1,2.3,2.5,2.7,4.3l-4,0.7
	c-0.3-1-0.8-1.8-1.6-2.3c-0.8-0.6-1.7-0.9-2.9-0.9c-1.8,0-3.2,0.6-4.2,1.7c-1,1.1-1.6,2.8-1.6,5c0,2.4,0.5,4.2,1.6,5.3
	c1.1,1.2,2.4,1.8,4.1,1.8c0.8,0,1.7-0.2,2.5-0.5c0.8-0.3,1.6-0.7,2.2-1.2v-2.5H509.7z M520.6,410.1v-20h14.8v3.4h-10.8v4.4h10v3.4
	h-10v5.4h11.2v3.4H520.6z M542.2,410.1v-16.6h-5.9v-3.4h15.9v3.4h-5.9v16.6H542.2z M451.1,231.3v-20h4v20H451.1z M460.5,231.3v-20
	h3.9l8.2,13.3v-13.3h3.7v20h-4l-8.1-13v13H460.5z M495,223.9l3.9,1.2c-0.6,2.2-1.6,3.8-3,4.9c-1.4,1.1-3.2,1.6-5.3,1.6
	c-2.7,0-4.8-0.9-6.5-2.7c-1.7-1.8-2.6-4.3-2.6-7.4c0-3.3,0.9-5.9,2.6-7.8c1.7-1.8,4-2.8,6.8-2.8c2.4,0,4.4,0.7,6,2.2
	c0.9,0.9,1.6,2.1,2,3.7l-4,1c-0.2-1-0.7-1.9-1.5-2.5c-0.8-0.6-1.7-0.9-2.7-0.9c-1.5,0-2.7,0.5-3.6,1.6c-0.9,1.1-1.4,2.8-1.4,5.2
	c0,2.5,0.5,4.3,1.4,5.4c0.9,1.1,2.1,1.6,3.5,1.6c1.1,0,2-0.3,2.8-1S494.6,225.4,495,223.9z M503.9,231.3v-20h14.8v3.4h-10.8v4.4h10
	v3.4h-10v5.4h11.2v3.4H503.9z M524.1,231.3v-20h3.9l8.2,13.3v-13.3h3.7v20h-4l-8.1-13v13H524.1z M550.2,231.3v-16.6h-5.9v-3.4h15.9
	v3.4h-5.9v16.6H550.2z M564.2,231.3v-20h4v20H564.2z M578.7,231.3l-7.1-20h4.4l5.1,14.8l4.9-14.8h4.3l-7.2,20H578.7z M593.8,231.3
	v-20h14.8v3.4h-10.8v4.4h10v3.4h-10v5.4H609v3.4H593.8z M475.1,597v-20h14.8v3.4h-10.8v4.4h10v3.4h-10v5.4h11.2v3.4H475.1z
	 M506.5,589.6l3.9,1.2c-0.6,2.2-1.6,3.8-3,4.9c-1.4,1.1-3.2,1.6-5.3,1.6c-2.7,0-4.8-0.9-6.5-2.7s-2.6-4.3-2.6-7.4
	c0-3.3,0.9-5.9,2.6-7.8c1.7-1.8,4-2.8,6.8-2.8c2.4,0,4.4,0.7,6,2.2c0.9,0.9,1.6,2.1,2,3.7l-4,1c-0.2-1-0.7-1.9-1.5-2.5
	s-1.7-0.9-2.7-0.9c-1.5,0-2.7,0.5-3.6,1.6c-0.9,1.1-1.4,2.8-1.4,5.2c0,2.5,0.5,4.3,1.4,5.4c0.9,1.1,2.1,1.6,3.5,1.6
	c1.1,0,2-0.3,2.8-1S506.2,591.1,506.5,589.6z M513.1,587.1c0-2,0.3-3.7,0.9-5.1c0.5-1,1.1-1.9,1.9-2.7c0.8-0.8,1.6-1.4,2.6-1.8
	c1.2-0.5,2.7-0.8,4.3-0.8c2.9,0,5.3,0.9,7.1,2.7c1.8,1.8,2.7,4.4,2.7,7.6c0,3.2-0.9,5.8-2.6,7.6c-1.8,1.8-4.1,2.7-7,2.7
	c-3,0-5.3-0.9-7.1-2.7S513.1,590.3,513.1,587.1z M517.2,587c0,2.3,0.5,4,1.6,5.1c1,1.2,2.4,1.8,4,1.8c1.6,0,2.9-0.6,4-1.7
	c1-1.2,1.5-2.9,1.5-5.2c0-2.3-0.5-4-1.5-5.1c-1-1.1-2.3-1.7-4-1.7s-3,0.6-4,1.7C517.7,582.9,517.2,584.7,517.2,587z M535.7,597v-20
	h3.9l8.2,13.3V577h3.7v20h-4l-8.1-13v13H535.7z M555,587.1c0-2,0.3-3.7,0.9-5.1c0.5-1,1.1-1.9,1.9-2.7c0.8-0.8,1.6-1.4,2.6-1.8
	c1.2-0.5,2.7-0.8,4.3-0.8c2.9,0,5.3,0.9,7.1,2.7c1.8,1.8,2.7,4.4,2.7,7.6c0,3.2-0.9,5.8-2.6,7.6c-1.8,1.8-4.1,2.7-7,2.7
	c-3,0-5.3-0.9-7.1-2.7S555,590.3,555,587.1z M559.1,587c0,2.3,0.5,4,1.6,5.1c1,1.2,2.4,1.8,4,1.8c1.6,0,2.9-0.6,4-1.7
	c1-1.2,1.5-2.9,1.5-5.2c0-2.3-0.5-4-1.5-5.1c-1-1.1-2.3-1.7-4-1.7s-3,0.6-4,1.7C559.6,582.9,559.1,584.7,559.1,587z M577.4,597v-20
	h6l3.6,13.6l3.6-13.6h6.1v20H593v-15.7l-4,15.7h-3.9l-4-15.7V597H577.4z M606,597v-8.4l-7.3-11.6h4.7l4.7,7.9l4.6-7.9h4.6l-7.3,11.6
	v8.4H606z M132.2,311l3.9,1.2c-0.6,2.2-1.6,3.8-3,4.9c-1.4,1.1-3.2,1.6-5.3,1.6c-2.7,0-4.8-0.9-6.5-2.7c-1.7-1.8-2.6-4.3-2.6-7.4
	c0-3.3,0.9-5.9,2.6-7.8c1.7-1.8,4-2.8,6.8-2.8c2.4,0,4.4,0.7,6,2.2c0.9,0.9,1.6,2.1,2,3.7l-4,1c-0.2-1-0.7-1.9-1.5-2.5
	c-0.8-0.6-1.7-0.9-2.7-0.9c-1.5,0-2.7,0.5-3.6,1.6s-1.4,2.8-1.4,5.2c0,2.5,0.5,4.3,1.4,5.4c0.9,1.1,2.1,1.6,3.5,1.6
	c1.1,0,2-0.3,2.8-1C131.4,313.5,131.9,312.4,132.2,311z M138.1,298.3h4v10.8c0,1.7,0,2.8,0.1,3.3c0.2,0.8,0.6,1.5,1.2,2
	s1.5,0.7,2.7,0.7c1.1,0,2-0.2,2.6-0.7c0.6-0.5,0.9-1,1.1-1.7c0.1-0.7,0.2-1.8,0.2-3.4v-11.1h4v10.5c0,2.4-0.1,4.1-0.3,5.1
	c-0.2,1-0.6,1.8-1.2,2.5c-0.6,0.7-1.4,1.2-2.4,1.6c-1,0.4-2.3,0.6-3.8,0.6c-1.9,0-3.4-0.2-4.3-0.7s-1.8-1-2.3-1.7
	c-0.6-0.7-0.9-1.4-1.1-2.2c-0.3-1.1-0.4-2.8-0.4-5.1V298.3z M156.7,318.3v-20h8.5c2.1,0,3.7,0.2,4.7,0.5c1,0.4,1.7,1,2.3,1.9
	s0.9,2,0.9,3.1c0,1.5-0.4,2.7-1.3,3.7c-0.9,1-2.2,1.6-4,1.8c0.9,0.5,1.6,1.1,2.2,1.7c0.6,0.6,1.3,1.7,2.3,3.2l2.4,3.9h-4.8L167,314
	c-1-1.6-1.7-2.5-2.1-2.9c-0.4-0.4-0.8-0.7-1.2-0.8c-0.4-0.1-1.1-0.2-2-0.2h-0.8v8.3H156.7z M160.8,306.8h3c1.9,0,3.1-0.1,3.6-0.2
	c0.5-0.2,0.9-0.4,1.1-0.8c0.3-0.4,0.4-0.9,0.4-1.5c0-0.7-0.2-1.2-0.5-1.6c-0.4-0.4-0.9-0.7-1.5-0.8c-0.3,0-1.3-0.1-2.9-0.1h-3.1
	V306.8z M175.4,318.3v-20h8.5c2.1,0,3.7,0.2,4.7,0.5c1,0.4,1.7,1,2.3,1.9s0.9,2,0.9,3.1c0,1.5-0.4,2.7-1.3,3.7c-0.9,1-2.2,1.6-4,1.8
	c0.9,0.5,1.6,1.1,2.2,1.7c0.6,0.6,1.3,1.7,2.3,3.2l2.4,3.9h-4.8l-2.9-4.3c-1-1.6-1.7-2.5-2.1-2.9c-0.4-0.4-0.8-0.7-1.2-0.8
	c-0.4-0.1-1.1-0.2-2-0.2h-0.8v8.3H175.4z M179.4,306.8h3c1.9,0,3.1-0.1,3.6-0.2c0.5-0.2,0.9-0.4,1.1-0.8c0.3-0.4,0.4-0.9,0.4-1.5
	c0-0.7-0.2-1.2-0.5-1.6c-0.4-0.4-0.9-0.7-1.5-0.8c-0.3,0-1.3-0.1-2.9-0.1h-3.1V306.8z M194,318.3v-20h14.8v3.4H198v4.4h10v3.4h-10
	v5.4h11.2v3.4H194z M211.1,318.3v-20h3.9l8.2,13.3v-13.3h3.7v20h-4l-8.1-13v13H211.1z M242.5,311l3.9,1.2c-0.6,2.2-1.6,3.8-3,4.9
	c-1.4,1.1-3.2,1.6-5.3,1.6c-2.7,0-4.8-0.9-6.5-2.7c-1.7-1.8-2.6-4.3-2.6-7.4c0-3.3,0.9-5.9,2.6-7.8c1.7-1.8,4-2.8,6.8-2.8
	c2.4,0,4.4,0.7,6,2.2c0.9,0.9,1.6,2.1,2,3.7l-4,1c-0.2-1-0.7-1.9-1.5-2.5c-0.8-0.6-1.7-0.9-2.7-0.9c-1.5,0-2.7,0.5-3.6,1.6
	s-1.4,2.8-1.4,5.2c0,2.5,0.5,4.3,1.4,5.4c0.9,1.1,2.1,1.6,3.5,1.6c1.1,0,2-0.3,2.8-1C241.6,313.5,242.1,312.4,242.5,311z
	 M253.6,318.3v-8.4l-7.3-11.6h4.7l4.7,7.9l4.6-7.9h4.6l-7.3,11.6v8.4H253.6z M439.9,772.2v-16.6H434v-3.4h15.9v3.4h-5.9v16.6H439.9z
	 M450.9,772.2v-20h8.5c2.1,0,3.7,0.2,4.7,0.5s1.7,1,2.3,1.9c0.6,0.9,0.9,2,0.9,3.2c0,1.5-0.4,2.7-1.3,3.7c-0.9,1-2.2,1.6-4,1.8
	c0.9,0.5,1.6,1.1,2.2,1.7c0.6,0.6,1.3,1.7,2.3,3.2l2.4,3.9h-4.8l-2.9-4.3c-1-1.6-1.7-2.5-2.1-2.9s-0.8-0.7-1.2-0.8
	c-0.4-0.2-1.1-0.2-2-0.2H455v8.3H450.9z M455,760.6h3c1.9,0,3.1-0.1,3.6-0.2c0.5-0.2,0.9-0.4,1.1-0.8c0.3-0.4,0.4-0.9,0.4-1.5
	c0-0.7-0.2-1.2-0.5-1.6c-0.4-0.4-0.9-0.7-1.5-0.8c-0.3,0-1.3-0.1-2.9-0.1H455V760.6z M469.6,772.2v-20h14.8v3.4h-10.8v4.4h10v3.4
	h-10v5.4h11.2v3.4H469.6z M486.7,772.2v-20h3.9l8.2,13.3v-13.3h3.7v20h-4l-8.1-13v13H486.7z M505.3,752.2h7.4c1.7,0,2.9,0.1,3.8,0.4
	c1.2,0.3,2.2,1,3,1.8c0.8,0.9,1.5,2,1.9,3.2s0.7,2.9,0.7,4.7c0,1.6-0.2,3.1-0.6,4.3c-0.5,1.5-1.2,2.6-2.1,3.5
	c-0.7,0.7-1.6,1.2-2.8,1.6c-0.9,0.3-2.1,0.4-3.6,0.4h-7.6V752.2z M509.3,755.6v13.2h3c1.1,0,1.9-0.1,2.4-0.2
	c0.7-0.2,1.2-0.4,1.6-0.8c0.4-0.4,0.8-1,1.1-1.9s0.4-2.1,0.4-3.7c0-1.5-0.1-2.7-0.4-3.6s-0.7-1.5-1.1-1.9c-0.5-0.5-1.1-0.8-1.9-0.9
	c-0.6-0.1-1.7-0.2-3.3-0.2H509.3z"/>
</svg>
